if (_typeface_js && _typeface_js.loadFace) _typeface_js.loadFace({"glyphs":{"0":{"ha":694,"x_min":33,"x_max":661,"o":"m 442 308 l 442 626 q 419 850 442 783 q 346 917 397 917 q 258 769 274 917 q 253 626 253 715 l 253 308 q 274 89 253 157 q 349 21 296 21 q 401 49 382 21 q 422 98 414 67 q 435 187 429 129 q 442 308 442 244 m 33 461 q 138 839 33 703 q 349 956 228 956 q 560 833 471 956 q 661 461 661 694 q 578 128 661 264 q 347 -18 489 -18 q 123 117 213 -18 q 33 461 33 253 z "},"1":{"ha":694,"x_min":90,"x_max":614,"o":"m 614 33 l 614 0 l 93 0 l 93 33 q 236 69 204 33 q 258 172 258 94 l 258 707 q 253 768 258 751 q 204 803 240 803 q 158 793 189 803 q 90 768 142 788 l 90 804 l 440 956 l 464 956 l 464 164 q 486 64 464 88 q 614 33 515 33 z "},"2":{"ha":694,"x_min":24,"x_max":664,"o":"m 664 293 l 601 0 l 24 0 l 24 32 q 225 254 161 179 q 365 447 322 368 q 417 619 417 540 q 389 722 417 675 q 251 797 344 797 q 175 779 210 797 q 82 672 115 749 l 43 672 q 132 843 81 778 q 349 956 221 956 q 508 906 439 956 q 606 696 606 836 q 586 589 606 639 q 447 399 550 497 l 222 185 l 432 185 q 571 202 542 185 q 631 293 600 219 l 664 293 z "},"3":{"ha":694,"x_min":22,"x_max":650,"o":"m 81 726 l 51 743 q 160 882 89 825 q 363 956 250 956 q 532 909 468 956 q 596 768 596 863 q 561 653 596 697 q 481 589 539 625 q 606 492 563 558 q 650 344 650 426 q 532 88 650 196 q 232 -19 414 -19 q 86 11 143 -19 q 22 108 22 46 q 48 163 22 140 q 108 186 74 186 q 242 118 169 186 q 353 50 314 50 q 447 85 411 50 q 492 215 492 128 q 349 439 492 360 q 213 494 306 463 l 213 518 q 328 569 292 543 q 393 700 393 618 q 357 804 393 765 q 246 843 321 843 q 135 797 183 843 q 81 726 111 775 z "},"4":{"ha":694,"x_min":26,"x_max":660,"o":"m 572 354 l 660 354 l 660 200 l 572 200 l 572 0 l 371 0 l 371 200 l 26 200 l 26 357 q 165 563 85 450 q 318 769 238 663 q 461 956 389 863 l 572 956 l 572 354 m 374 354 l 374 763 l 83 354 l 374 354 z "},"5":{"ha":694,"x_min":31,"x_max":653,"o":"m 207 763 l 176 650 q 345 635 276 650 q 482 582 414 621 q 578 492 539 550 q 626 324 626 418 q 524 88 626 181 q 229 -11 414 -11 q 88 21 144 -11 q 31 111 31 53 q 52 169 31 144 q 117 194 74 194 q 253 134 167 194 q 379 74 339 74 q 465 103 426 74 q 518 218 518 143 q 474 328 518 278 q 368 406 431 378 q 228 447 306 433 q 71 460 151 460 l 206 939 l 653 939 l 593 763 l 207 763 z "},"6":{"ha":694,"x_min":39,"x_max":660,"o":"m 653 956 l 653 919 q 439 826 522 893 q 283 561 325 735 q 344 581 324 578 q 408 585 364 585 q 569 529 504 585 q 660 293 660 453 q 603 110 660 197 q 357 -18 519 -18 q 151 63 235 -18 q 39 394 39 171 q 189 754 39 601 q 653 956 357 926 m 449 217 q 426 444 449 379 q 331 522 400 522 q 295 519 310 522 q 269 504 281 515 q 267 478 268 488 q 257 379 257 401 q 278 94 257 169 q 364 19 300 19 q 438 76 421 19 q 449 217 449 114 z "},"7":{"ha":694,"x_min":24,"x_max":663,"o":"m 663 939 l 336 0 l 204 0 l 482 749 l 194 749 q 125 735 150 749 q 58 631 78 708 l 24 631 l 85 939 l 663 939 z "},"8":{"ha":694,"x_min":39,"x_max":656,"o":"m 233 803 q 286 679 233 738 q 414 586 333 626 q 454 650 444 626 q 471 746 471 689 q 449 857 471 815 q 347 915 417 915 q 266 881 299 915 q 233 803 233 847 m 369 956 q 582 885 511 956 q 636 754 636 831 q 571 624 636 676 q 447 561 525 586 q 596 435 543 504 q 656 264 656 356 q 567 58 656 135 q 329 -18 478 -18 q 128 40 208 -18 q 39 215 39 104 q 108 378 39 315 q 247 450 158 422 q 111 557 158 500 q 54 708 54 626 q 128 881 54 814 q 369 956 211 956 m 207 218 q 241 82 207 138 q 339 26 275 26 q 447 93 418 26 q 463 189 463 129 q 406 326 463 265 q 278 425 372 363 q 218 313 229 353 q 207 218 207 274 z "},"9":{"ha":694,"x_min":36,"x_max":657,"o":"m 43 -18 l 43 18 q 254 110 172 44 q 415 379 367 201 q 355 358 383 363 q 288 353 326 353 q 126 408 192 353 q 36 644 36 485 q 93 828 36 740 q 339 956 176 956 q 544 875 461 956 q 657 543 657 767 q 507 183 657 336 q 43 -18 339 11 m 247 721 q 272 487 247 558 q 365 415 296 415 q 406 420 386 415 q 426 435 425 425 q 433 488 428 444 q 439 558 439 532 q 417 843 439 768 q 332 918 396 918 q 258 861 275 918 q 247 721 247 824 z "}," ":{"ha":347,"x_min":0,"x_max":0,"o":""},"!":{"ha":463,"x_min":113,"x_max":349,"o":"m 114 99 q 148 181 114 146 q 231 217 182 217 q 314 182 279 217 q 349 99 349 147 q 314 15 349 49 q 231 -18 279 -18 q 147 15 181 -18 q 114 99 114 49 m 250 325 l 210 325 q 164 607 193 490 q 113 822 113 808 q 144 924 113 888 q 231 960 176 960 q 316 924 285 960 q 347 822 347 889 q 326 708 347 775 q 250 325 269 529 z "},"\"":{"ha":771,"x_min":115,"x_max":656,"o":"m 233 561 l 176 561 q 137 740 158 639 q 115 860 115 842 q 139 932 115 904 q 204 960 163 960 q 269 932 244 960 q 294 860 294 904 q 274 736 294 835 q 233 561 265 694 m 594 561 l 538 561 q 498 740 519 639 q 476 860 476 842 q 500 932 476 904 q 565 960 524 960 q 631 932 606 960 q 656 860 656 904 q 635 736 656 835 q 594 561 626 694 z "},"#":{"ha":694,"x_min":6,"x_max":689,"o":"m 649 393 l 647 292 l 513 292 l 472 0 l 364 0 l 404 292 l 247 292 l 207 0 l 99 0 l 139 292 l 6 292 l 7 393 l 154 393 l 179 579 l 46 579 l 47 681 l 193 681 l 235 972 l 342 972 l 301 681 l 458 681 l 500 972 l 607 972 l 567 681 l 689 681 l 688 579 l 553 579 l 528 393 l 649 393 m 444 579 l 288 579 l 263 393 l 419 393 l 444 579 z "},"$":{"ha":694,"x_min":40,"x_max":656,"o":"m 374 347 l 374 42 q 451 72 424 51 q 503 194 503 111 q 483 267 503 239 q 374 347 464 296 m 594 668 l 565 668 q 489 824 538 768 q 374 890 440 879 l 374 592 q 605 433 554 500 q 656 276 656 367 q 568 71 656 138 q 374 0 504 22 l 374 -137 l 297 -137 l 297 0 q 157 22 221 0 q 64 60 101 46 l 64 276 l 93 274 q 185 96 128 151 q 296 42 228 54 l 296 390 q 132 494 186 444 q 40 689 40 579 q 125 872 40 803 q 297 933 199 933 l 297 1042 l 374 1042 l 374 936 q 519 901 461 924 q 594 864 554 889 l 594 668 m 296 631 l 296 894 q 213 860 240 882 q 172 768 172 828 q 228 665 172 706 q 296 631 254 646 z "},"%":{"ha":1389,"x_min":172,"x_max":1218,"o":"m 906 128 q 914 76 906 93 q 979 44 931 44 q 1113 154 1047 44 q 1172 342 1172 256 q 1161 403 1172 376 q 1097 446 1143 446 q 961 307 1026 446 q 906 128 906 189 m 743 165 q 844 413 743 303 q 1049 517 942 517 q 1179 469 1136 517 q 1218 347 1218 426 q 1149 121 1218 233 q 926 -19 1063 -19 q 794 34 844 -19 q 743 165 743 88 m 1011 961 l 464 -11 l 388 -11 l 868 844 l 865 847 q 789 822 832 832 q 708 813 746 813 q 674 815 690 813 q 646 819 658 818 q 578 558 646 679 q 349 408 493 408 q 224 458 275 408 q 172 589 172 508 q 288 856 172 751 q 474 942 382 942 q 546 931 518 942 q 590 904 556 926 q 644 876 615 886 q 724 865 672 865 q 840 886 783 865 q 933 940 914 913 q 946 956 940 950 q 958 961 951 961 l 1011 961 m 331 546 q 349 492 331 513 q 400 472 368 472 q 542 592 476 472 q 600 789 600 699 q 590 831 600 818 q 560 851 579 844 q 538 865 554 853 q 515 876 522 876 q 395 747 460 876 q 331 546 331 617 z "},"&":{"ha":1157,"x_min":86,"x_max":1093,"o":"m 801 582 l 1088 582 l 1088 549 q 1024 534 1042 544 q 986 493 1006 524 q 908 369 926 396 q 819 244 890 342 q 900 153 872 176 q 986 118 940 118 q 1031 132 1011 118 q 1065 171 1051 146 l 1093 154 l 1032 56 q 960 0 1004 22 q 871 -22 915 -22 q 747 17 804 -22 q 660 100 715 39 q 539 25 600 54 q 351 -21 443 -21 q 169 39 243 -21 q 86 225 86 107 q 188 433 86 343 q 358 539 243 483 q 286 738 286 658 q 374 911 286 853 q 556 960 446 960 q 738 904 675 960 q 789 792 789 858 q 747 686 789 732 q 578 588 693 626 l 788 290 q 857 383 836 350 q 893 486 893 442 q 877 532 893 522 q 801 549 861 542 l 801 582 m 279 361 q 342 188 279 278 q 503 85 413 85 q 563 100 531 85 q 628 139 594 115 q 542 259 603 172 q 449 397 482 346 l 382 497 q 302 435 325 465 q 279 361 279 406 m 449 832 q 488 719 449 786 q 551 628 515 671 q 614 660 593 642 q 649 742 649 689 q 615 853 649 800 q 522 914 576 914 q 472 899 490 914 q 449 832 449 878 z "},"'":{"ha":386,"x_min":104,"x_max":283,"o":"m 222 561 l 165 561 q 126 740 147 639 q 104 860 104 842 q 128 932 104 904 q 193 960 151 960 q 258 932 233 960 q 283 860 283 904 q 263 736 283 835 q 222 561 254 694 z "},"(":{"ha":463,"x_min":64,"x_max":425,"o":"m 425 964 l 425 926 q 279 775 317 853 q 221 364 221 651 q 272 -26 221 97 q 425 -194 314 -126 l 425 -233 q 189 -31 279 -154 q 86 188 118 68 q 64 351 64 272 q 140 682 64 535 q 297 879 199 794 q 425 964 364 936 z "},")":{"ha":463,"x_min":38,"x_max":399,"o":"m 38 -233 l 38 -196 q 183 -44 146 -122 q 242 367 242 79 q 190 757 242 633 q 38 925 149 857 l 38 964 q 274 761 183 885 q 376 543 344 663 q 399 379 399 458 q 322 49 399 196 q 165 -149 264 -64 q 38 -233 99 -206 z "},"*":{"ha":694,"x_min":78,"x_max":621,"o":"m 386 661 l 386 650 q 546 613 424 629 q 621 542 621 603 q 601 494 621 514 q 553 475 582 475 q 519 482 535 475 q 476 521 496 493 q 420 597 435 581 q 369 631 406 613 l 360 624 q 382 519 365 560 q 419 426 419 429 q 401 376 419 397 q 347 354 382 354 q 298 379 314 354 q 282 431 282 404 q 317 525 282 447 q 335 624 335 565 l 325 631 q 221 522 269 594 q 144 471 186 471 q 101 489 124 471 q 79 538 79 507 q 85 572 79 561 q 133 610 96 596 q 161 616 146 614 q 193 618 176 618 q 253 624 228 618 q 313 656 278 629 l 314 665 q 147 704 269 688 q 78 775 78 714 q 99 826 78 810 q 139 842 119 842 q 214 807 188 842 q 328 686 292 703 l 338 690 q 297 826 338 754 q 278 892 278 861 q 299 940 278 921 q 349 960 319 960 q 404 931 386 960 q 417 885 417 910 q 400 824 417 856 q 364 690 364 754 l 375 686 q 476 797 426 724 q 550 846 510 846 q 601 822 582 846 q 621 775 621 799 q 610 742 621 760 q 564 706 594 715 q 495 699 554 703 q 386 661 436 696 z "},"+":{"ha":792,"x_min":46,"x_max":746,"o":"m 335 413 l 335 703 l 457 703 l 457 413 l 746 413 l 746 290 l 457 290 l 457 0 l 335 0 l 335 290 l 46 290 l 46 413 l 335 413 z "},",":{"ha":347,"x_min":54,"x_max":310,"o":"m 79 -250 l 64 -219 q 154 -147 119 -182 q 215 -36 215 -86 q 188 -6 215 -6 l 157 -8 q 92 13 118 -8 q 54 101 54 42 q 86 185 54 154 q 168 215 118 215 q 276 164 239 215 q 310 57 310 119 q 222 -146 310 -56 q 79 -250 172 -197 z "},"-":{"ha":463,"x_min":61,"x_max":399,"o":"m 399 399 l 399 238 l 61 238 l 61 399 l 399 399 z "},".":{"ha":347,"x_min":57,"x_max":292,"o":"m 57 99 q 91 181 57 146 q 174 217 125 217 q 257 182 222 217 q 292 99 292 147 q 257 15 292 49 q 174 -18 222 -18 q 90 15 124 -18 q 57 99 57 49 z "},"/":{"ha":386,"x_min":-33,"x_max":419,"o":"m 419 960 l 92 -26 l -33 -26 l 294 960 l 419 960 z "},":":{"ha":463,"x_min":114,"x_max":349,"o":"m 114 99 q 148 181 114 146 q 231 217 182 217 q 314 182 279 217 q 349 99 349 147 q 314 15 349 49 q 231 -18 279 -18 q 147 15 181 -18 q 114 99 114 49 m 114 539 q 147 621 114 586 q 231 656 181 656 q 314 622 279 656 q 349 539 349 589 q 314 456 349 490 q 231 421 279 421 q 147 456 181 421 q 114 539 114 490 z "},";":{"ha":463,"x_min":114,"x_max":369,"o":"m 369 57 q 282 -146 369 -56 q 139 -250 232 -197 l 124 -219 q 214 -147 179 -182 q 275 -36 275 -86 q 247 -6 275 -6 l 217 -8 q 165 4 182 -4 q 114 101 114 32 q 146 185 114 154 q 228 215 178 215 q 336 164 299 215 q 369 57 369 119 m 114 539 q 147 621 114 586 q 231 656 181 656 q 314 622 279 656 q 349 539 349 589 q 314 456 349 490 q 231 421 279 421 q 147 456 181 421 q 114 539 114 490 z "},"<":{"ha":792,"x_min":43,"x_max":749,"o":"m 749 111 l 749 -11 l 43 299 l 43 404 l 749 714 l 749 592 l 201 351 l 749 111 z "},"=":{"ha":792,"x_min":46,"x_max":746,"o":"m 746 554 l 746 432 l 46 432 l 46 554 l 746 554 m 746 271 l 746 149 l 46 149 l 46 271 l 746 271 z "},">":{"ha":792,"x_min":43,"x_max":749,"o":"m 43 111 l 590 351 l 43 592 l 43 714 l 749 404 l 749 299 l 43 -11 l 43 111 z "},"?":{"ha":694,"x_min":79,"x_max":618,"o":"m 351 321 l 310 321 l 307 382 q 359 535 307 438 q 411 725 411 632 q 393 838 411 794 q 292 907 364 907 q 233 892 256 907 q 210 851 210 878 q 235 805 210 833 q 261 740 261 776 q 229 669 261 693 q 176 651 206 651 q 103 683 128 651 q 79 758 79 715 q 128 879 79 826 q 349 957 199 957 q 499 922 429 957 q 618 721 618 863 q 583 608 618 658 q 488 519 547 557 q 424 479 436 488 q 365 421 379 449 q 351 321 351 393 m 214 99 q 248 181 214 146 q 332 217 282 217 q 414 182 379 217 q 449 99 449 147 q 415 15 449 49 q 332 -18 382 -18 q 248 16 282 -18 q 214 99 214 50 z "},"@":{"ha":1292,"x_min":150,"x_max":1142,"o":"m 801 564 q 740 654 801 654 q 619 582 681 654 q 550 383 550 499 q 574 294 550 324 q 636 265 597 265 q 733 339 686 265 q 801 564 788 425 m 826 647 l 842 703 l 940 703 l 849 342 q 846 315 846 328 q 858 269 846 289 q 899 250 869 250 q 1028 347 975 250 q 1076 538 1076 436 q 971 782 1076 672 q 672 906 851 906 q 397 788 506 906 q 278 431 278 657 q 394 155 278 272 q 686 38 510 38 q 813 50 753 38 q 969 106 874 63 l 988 57 q 846 -1 904 17 q 688 -26 765 -26 q 279 136 431 -26 q 150 444 150 274 q 306 818 150 671 q 672 960 456 960 q 1006 840 871 960 q 1142 539 1142 719 q 1074 314 1142 415 q 876 199 996 199 q 794 225 828 199 q 749 300 749 261 q 690 242 722 267 q 581 200 635 200 q 478 248 513 200 q 443 375 443 296 q 511 588 443 481 q 725 721 596 721 q 781 708 761 721 q 826 647 800 696 z "},"A":{"ha":1003,"x_min":13,"x_max":957,"o":"m 957 35 l 957 0 l 507 0 l 507 35 q 595 45 572 35 q 618 89 618 56 q 594 178 618 115 q 554 274 585 204 l 242 274 q 196 151 211 194 q 181 94 181 108 q 219 44 181 58 q 294 35 246 35 l 294 0 l 13 0 l 13 35 q 93 81 65 43 q 149 197 113 107 l 457 958 l 496 958 l 806 228 q 879 76 856 108 q 957 35 910 35 m 263 328 l 533 328 l 393 665 l 263 328 z "},"B":{"ha":926,"x_min":22,"x_max":860,"o":"m 367 476 l 367 129 q 386 64 367 83 q 450 44 406 44 q 593 117 551 44 q 621 253 621 165 q 549 439 621 385 q 408 476 499 476 l 367 476 m 367 829 l 367 518 q 544 564 500 518 q 583 718 583 604 q 554 844 583 800 q 440 897 519 897 q 385 884 403 897 q 367 829 367 871 m 22 0 l 22 35 q 113 54 93 43 q 144 133 144 74 l 144 806 q 108 889 144 868 q 22 904 82 904 l 22 939 l 451 939 q 661 910 579 939 q 813 717 813 856 q 728 561 813 617 q 597 508 692 538 q 772 435 704 488 q 860 258 860 367 q 775 86 860 156 q 469 0 671 0 l 22 0 z "},"C":{"ha":1003,"x_min":68,"x_max":954,"o":"m 913 211 l 954 176 q 790 32 867 76 q 567 -26 692 -26 q 196 119 333 -26 q 68 461 68 256 q 205 817 68 675 q 560 960 342 960 q 690 938 622 960 q 828 892 758 915 q 868 910 853 892 q 892 956 878 922 l 929 956 l 929 631 l 894 631 q 774 817 851 738 q 571 914 678 914 q 367 779 431 914 q 314 467 314 667 q 326 302 314 381 q 374 161 338 224 q 454 79 403 110 q 585 40 518 40 q 746 76 672 40 q 913 211 828 117 z "},"D":{"ha":1003,"x_min":19,"x_max":958,"o":"m 19 0 l 19 35 q 108 60 81 35 q 135 126 135 85 l 135 811 q 97 888 135 867 q 19 904 78 899 l 19 939 l 443 939 q 846 792 710 939 q 958 483 958 669 q 840 146 958 275 q 458 0 707 0 l 19 0 m 360 826 l 360 129 q 375 67 360 85 q 439 49 390 49 q 636 133 569 49 q 717 469 717 236 q 671 728 717 618 q 446 892 601 892 q 369 871 388 892 q 360 826 360 860 z "},"E":{"ha":926,"x_min":22,"x_max":890,"o":"m 22 904 l 22 939 l 824 939 l 824 660 l 789 660 q 689 850 767 800 q 471 892 624 892 q 390 881 410 892 q 369 826 369 869 l 369 504 q 524 543 476 504 q 594 711 579 589 l 631 711 l 631 242 l 594 242 q 531 412 582 367 q 369 457 479 457 l 369 121 q 394 59 369 75 q 486 43 418 43 q 688 86 610 43 q 851 289 790 143 l 890 289 l 835 0 l 22 0 l 22 35 q 113 54 93 42 q 144 133 144 74 l 144 806 q 108 889 144 868 q 22 904 82 904 z "},"F":{"ha":849,"x_min":22,"x_max":810,"o":"m 22 904 l 22 939 l 810 939 l 810 660 l 776 660 q 701 829 750 783 q 469 892 635 892 q 390 881 410 892 q 369 826 369 869 l 369 504 q 533 565 486 504 q 582 711 563 604 l 617 711 l 617 242 l 582 242 q 514 417 564 378 q 369 457 464 457 l 369 133 q 408 50 369 69 q 522 35 439 35 l 522 0 l 22 0 l 22 35 q 113 54 93 42 q 144 133 144 74 l 144 806 q 108 889 144 868 q 22 904 82 904 z "},"G":{"ha":1081,"x_min":51,"x_max":1049,"o":"m 1049 399 l 1049 364 q 974 350 990 357 q 929 236 929 331 l 929 60 q 766 -1 881 25 q 554 -26 651 -26 q 172 126 310 -26 q 51 461 51 261 q 185 813 51 671 q 543 960 324 960 q 674 938 606 960 q 811 892 742 915 q 851 910 836 892 q 875 956 861 922 l 913 956 l 913 631 l 878 631 q 757 817 835 738 q 554 914 661 914 q 350 779 414 914 q 297 464 297 668 q 367 135 297 250 q 568 19 436 19 q 686 47 654 19 q 713 121 713 69 l 713 267 q 683 347 713 329 q 572 364 653 364 l 572 399 l 1049 399 z "},"H":{"ha":1081,"x_min":29,"x_max":1054,"o":"m 1054 35 l 1054 0 l 582 0 l 582 35 q 672 54 653 43 q 707 133 707 75 l 707 453 l 372 453 l 372 133 q 407 56 372 76 q 497 35 429 43 l 497 0 l 29 0 l 29 35 q 99 47 85 42 q 147 133 147 65 l 147 806 q 111 886 147 865 q 29 904 90 899 l 29 939 l 497 939 l 497 904 q 413 890 438 904 q 372 806 372 868 l 372 518 l 707 518 l 707 806 q 685 876 707 854 q 582 904 657 904 l 582 939 l 1054 939 l 1054 904 q 971 889 997 904 q 932 806 932 867 l 932 133 q 965 57 932 78 q 1054 35 988 43 z "},"I":{"ha":540,"x_min":28,"x_max":514,"o":"m 514 35 l 514 0 l 28 0 l 28 35 q 136 64 115 43 q 157 133 157 85 l 157 806 q 117 889 157 867 q 28 904 89 904 l 28 939 l 514 939 l 514 904 q 424 890 451 904 q 382 806 382 869 l 382 133 q 419 51 382 74 q 514 35 449 35 z "},"J":{"ha":694,"x_min":4,"x_max":665,"o":"m 665 939 l 665 904 q 574 886 596 904 q 542 776 542 861 l 542 171 q 444 -75 542 0 q 239 -133 369 -133 q 74 -85 135 -133 q 4 43 4 -29 q 35 123 4 96 q 103 150 67 150 q 164 128 135 150 q 203 46 203 97 q 178 -12 203 18 q 165 -44 165 -28 q 226 -87 165 -87 q 306 -43 285 -87 q 317 33 317 -19 l 317 806 q 276 890 317 869 q 176 904 250 904 l 176 939 l 665 939 z "},"K":{"ha":1081,"x_min":42,"x_max":1068,"o":"m 1068 35 l 1068 0 l 601 0 l 601 35 q 689 40 667 35 q 711 64 711 46 q 678 125 711 85 l 425 440 l 388 406 l 388 133 q 421 57 388 78 q 510 35 443 43 l 510 0 l 42 0 l 42 35 q 131 54 111 42 q 163 133 163 74 l 163 806 q 142 876 163 853 q 42 904 117 904 l 42 939 l 511 939 l 511 904 q 421 886 444 904 q 388 776 388 860 l 388 479 l 689 782 q 721 815 713 806 q 739 858 739 836 q 716 894 739 883 q 621 904 693 904 l 621 939 l 1022 939 l 1022 904 q 782 796 903 904 q 576 589 754 771 l 1000 64 q 1029 40 1014 46 q 1068 35 1044 35 z "},"L":{"ha":926,"x_min":26,"x_max":886,"o":"m 886 315 l 829 0 l 26 0 l 26 35 q 115 56 96 43 q 146 133 146 75 l 146 806 q 110 889 146 867 q 26 904 85 904 l 26 939 l 511 939 l 511 904 q 404 886 429 904 q 371 776 371 863 l 371 121 q 396 58 371 72 q 494 43 421 43 q 725 119 640 43 q 846 315 790 178 l 886 315 z "},"M":{"ha":1311,"x_min":19,"x_max":1279,"o":"m 1279 35 l 1279 0 l 818 0 l 818 35 q 893 46 879 40 q 942 139 942 63 l 942 839 l 592 0 l 554 0 l 207 818 l 204 172 q 232 65 204 96 q 344 35 260 35 l 344 0 l 19 0 l 19 35 q 124 63 101 42 q 146 146 146 83 l 146 806 q 121 883 146 863 q 22 904 96 904 l 22 939 l 374 939 l 651 283 l 929 939 l 1279 939 l 1279 904 q 1189 886 1211 904 q 1157 776 1157 860 l 1157 163 q 1183 63 1157 85 q 1279 35 1204 44 z "},"N":{"ha":1003,"x_min":22,"x_max":974,"o":"m 22 0 l 22 35 q 114 58 93 43 q 144 146 144 81 l 144 804 q 64 890 90 871 q 26 904 44 904 l 26 939 l 319 939 l 801 346 l 804 767 q 782 867 804 838 q 675 904 754 904 l 675 939 l 974 939 l 974 904 q 884 872 903 896 q 865 793 865 849 l 865 -25 l 826 -25 l 208 728 l 206 172 q 232 70 206 97 q 338 35 258 43 l 338 0 l 22 0 z "},"O":{"ha":1081,"x_min":49,"x_max":1032,"o":"m 540 914 q 344 767 408 914 q 294 467 294 651 q 357 129 294 239 q 540 19 419 19 q 751 197 693 19 q 786 467 786 303 q 736 767 786 650 q 540 914 674 914 m 540 960 q 886 828 747 960 q 1032 467 1032 689 q 893 111 1032 249 q 540 -26 754 -26 q 187 110 325 -26 q 49 467 49 247 q 190 824 49 689 q 540 960 332 960 z "},"P":{"ha":849,"x_min":22,"x_max":833,"o":"m 22 0 l 22 35 q 84 46 74 43 q 103 54 94 49 q 132 95 125 71 q 139 163 139 119 l 139 776 q 108 881 139 856 q 22 904 88 899 l 22 939 l 469 939 q 693 900 606 939 q 833 683 833 838 q 813 585 833 631 q 707 474 781 515 q 577 430 646 439 q 364 421 508 421 l 364 163 q 389 61 364 83 q 486 35 407 44 l 486 0 l 22 0 m 364 842 l 364 469 q 542 510 494 469 q 594 679 594 554 q 556 843 594 796 q 431 890 518 890 q 364 842 364 890 z "},"Q":{"ha":1081,"x_min":49,"x_max":1032,"o":"m 1014 -162 l 1022 -196 q 892 -233 951 -222 q 765 -244 832 -244 q 542 -187 643 -244 q 379 -3 429 -125 q 131 181 221 44 q 49 449 49 304 q 193 825 49 683 q 540 960 331 960 q 886 828 747 960 q 1032 467 1032 689 q 936 160 1032 288 q 681 -8 840 33 q 788 -140 718 -96 q 921 -179 849 -179 q 969 -175 949 -179 q 1014 -162 1000 -167 m 540 914 q 344 767 408 914 q 294 467 294 651 q 357 129 294 239 q 540 19 419 19 q 751 197 693 19 q 786 467 786 303 q 736 767 786 650 q 540 914 674 914 z "},"R":{"ha":1003,"x_min":36,"x_max":993,"o":"m 383 833 l 383 479 q 578 517 528 479 q 638 692 638 561 q 597 844 638 796 q 469 892 556 892 q 402 881 415 892 q 383 833 389 871 m 993 35 l 993 0 l 708 0 l 421 435 l 383 435 l 383 163 q 410 63 383 85 q 506 35 431 44 l 506 0 l 36 0 l 36 35 q 132 60 114 44 q 158 163 158 83 l 158 776 q 128 885 158 860 q 36 904 104 904 l 36 939 l 483 939 q 775 876 675 939 q 875 694 875 813 q 794 521 875 583 q 657 457 750 486 l 936 61 q 963 40 949 44 q 993 35 976 35 z "},"S":{"ha":772,"x_min":49,"x_max":713,"o":"m 672 660 l 633 660 q 550 824 608 754 q 361 917 471 917 q 257 883 301 917 q 213 785 213 849 q 241 697 213 729 q 356 621 269 664 l 560 519 q 653 440 613 493 q 713 264 713 363 q 636 74 713 154 q 368 -26 542 -26 q 245 -11 301 -26 q 131 21 189 4 q 103 8 111 21 q 89 -26 94 -6 l 49 -26 l 49 317 l 89 317 q 175 115 114 192 q 374 19 251 19 q 502 63 457 19 q 547 175 547 107 q 504 278 547 238 q 392 344 475 304 l 299 389 q 92 556 144 463 q 61 686 61 610 q 154 894 61 818 q 368 960 235 960 q 505 937 433 960 q 585 914 576 914 q 621 935 610 914 q 631 961 626 944 l 672 961 l 672 660 z "},"T":{"ha":926,"x_min":43,"x_max":883,"o":"m 713 35 l 713 0 l 217 0 l 217 35 q 322 54 299 35 q 351 163 351 78 l 351 894 q 192 861 247 894 q 83 660 101 807 l 43 660 l 47 939 l 881 939 l 883 660 l 843 660 q 736 860 825 806 q 576 894 679 894 l 576 163 q 606 54 576 78 q 713 35 629 35 z "},"U":{"ha":1003,"x_min":22,"x_max":974,"o":"m 974 939 l 974 904 q 892 876 911 894 q 865 786 865 851 l 865 343 q 849 203 865 271 q 788 75 828 118 q 657 -4 739 22 q 514 -26 589 -26 q 385 -12 446 -26 q 232 61 292 8 q 161 150 181 107 q 136 313 136 207 l 136 776 q 108 881 136 856 q 22 904 90 897 l 22 939 l 492 939 l 492 904 q 390 886 414 904 q 357 776 357 861 l 357 313 q 406 106 357 169 q 557 42 456 42 q 772 158 715 42 q 804 343 804 224 l 804 767 q 782 867 804 839 q 668 904 753 904 l 668 939 l 974 939 z "},"V":{"ha":1003,"x_min":22,"x_max":974,"o":"m 974 939 l 974 904 q 896 875 918 897 q 849 790 874 853 l 532 -25 l 494 -25 l 139 807 q 93 881 113 867 q 22 904 74 896 l 22 939 l 489 939 l 489 904 q 393 894 417 904 q 369 846 369 885 q 387 787 369 831 q 411 726 404 743 l 593 288 l 769 744 q 790 799 782 775 q 797 840 797 822 q 678 904 797 904 l 678 939 l 974 939 z "},"W":{"ha":1389,"x_min":26,"x_max":1363,"o":"m 1363 939 l 1363 904 q 1303 878 1326 901 q 1267 815 1279 856 l 989 -21 l 951 -21 l 718 629 l 708 629 l 456 -21 l 417 -21 l 122 815 q 88 882 104 867 q 26 904 71 897 l 26 939 l 435 939 l 435 904 q 369 892 392 904 q 346 846 346 881 q 349 825 346 838 q 356 800 351 813 l 521 299 l 686 722 l 638 856 q 597 897 618 889 q 538 904 575 904 l 538 939 l 971 939 l 971 904 q 895 894 919 904 q 871 851 871 885 q 874 828 871 840 q 890 775 882 801 l 1039 313 l 1196 785 q 1201 808 1197 790 q 1206 843 1206 825 q 1180 893 1206 882 q 1110 904 1154 904 l 1110 939 l 1363 939 z "},"X":{"ha":1003,"x_min":22,"x_max":971,"o":"m 956 939 l 956 904 q 804 838 864 896 q 583 547 756 790 l 836 154 q 917 51 888 75 q 971 35 938 35 l 971 0 l 499 0 l 499 35 q 585 43 560 35 q 610 79 610 51 q 601 111 610 90 q 581 151 593 132 l 440 376 l 388 306 q 279 151 307 197 q 257 93 257 114 q 294 47 257 61 q 369 35 315 39 l 369 0 l 22 0 l 22 35 q 93 51 71 42 q 167 113 132 68 l 410 419 l 135 824 q 103 868 111 858 q 24 904 71 904 l 24 939 l 504 939 l 504 904 q 417 896 439 904 q 394 858 394 888 q 415 807 394 839 l 550 599 q 689 794 675 771 q 708 856 708 826 q 684 895 708 886 q 608 904 660 904 l 608 939 l 956 939 z "},"Y":{"ha":1003,"x_min":21,"x_max":971,"o":"m 971 939 l 971 904 q 910 886 929 897 q 876 850 892 875 l 611 418 l 611 163 q 638 60 611 82 q 739 35 658 43 l 739 0 l 257 0 l 257 35 q 357 58 338 43 q 386 163 386 82 l 386 367 l 132 828 q 114 857 119 850 q 21 904 75 904 l 21 939 l 486 939 l 486 904 q 394 896 414 904 q 374 857 374 888 q 388 817 374 844 q 407 779 401 790 l 574 457 l 728 714 q 758 769 744 739 q 782 843 782 819 q 751 892 782 879 q 665 904 721 904 l 665 939 l 971 939 z "},"Z":{"ha":926,"x_min":39,"x_max":881,"o":"m 881 335 l 844 0 l 39 0 l 39 22 l 569 890 q 369 887 400 890 q 289 869 338 883 q 175 776 221 849 q 121 653 151 739 l 82 653 l 111 939 l 839 939 l 839 917 l 313 49 q 572 57 513 49 q 743 129 683 72 q 844 335 810 192 l 881 335 z "},"[":{"ha":463,"x_min":93,"x_max":418,"o":"m 418 942 l 418 896 l 331 896 q 255 878 272 896 q 238 799 238 861 l 238 -87 q 246 -140 238 -128 q 307 -161 260 -161 l 418 -161 l 418 -207 l 93 -207 l 93 942 l 418 942 z "},"\\":{"ha":386,"x_min":-35,"x_max":421,"o":"m 293 -26 l -35 960 l 94 960 l 421 -26 l 293 -26 z "},"]":{"ha":463,"x_min":44,"x_max":369,"o":"m 44 -207 l 44 -161 l 156 -161 q 209 -150 193 -161 q 225 -87 225 -139 l 225 799 q 208 878 225 860 q 132 896 192 896 l 44 896 l 44 942 l 369 942 l 369 -207 l 44 -207 z "},"^":{"ha":807,"x_min":101,"x_max":707,"o":"m 225 432 l 101 432 l 349 939 l 460 939 l 707 432 l 583 432 l 404 810 l 225 432 z "},"_":{"ha":694,"x_min":0,"x_max":694,"o":"m 694 -174 l 0 -174 l 0 -104 l 694 -104 l 694 -174 z "},"`":{"ha":463,"x_min":11,"x_max":342,"o":"m 342 733 l 264 733 l 67 856 q 25 889 39 872 q 11 929 11 906 q 32 974 11 957 q 79 990 53 990 q 119 979 100 990 q 151 951 138 968 l 342 733 z "},"a":{"ha":694,"x_min":35,"x_max":678,"o":"m 657 89 l 678 60 q 608 1 646 22 q 525 -19 571 -19 q 433 14 461 -19 q 408 78 418 32 q 276 -4 350 19 q 188 -19 229 -19 q 86 15 129 -19 q 35 129 35 57 q 147 290 35 226 q 408 389 219 332 l 408 490 q 386 578 408 550 q 286 613 358 613 q 228 597 251 613 q 204 563 204 581 q 225 525 204 551 q 246 468 246 499 q 215 408 246 432 q 153 390 192 390 q 85 414 108 390 q 61 485 61 438 q 126 604 61 556 q 321 657 197 657 q 522 609 444 657 q 599 467 599 561 l 599 104 q 603 80 599 90 q 629 69 608 69 q 643 75 638 69 l 657 89 m 407 139 l 407 340 q 284 278 331 324 q 238 172 238 233 q 256 108 238 136 q 308 79 274 79 q 368 100 340 79 q 407 139 382 110 z "},"b":{"ha":772,"x_min":24,"x_max":724,"o":"m 24 906 l 24 939 l 293 939 l 293 579 q 350 626 322 610 q 463 657 401 657 q 651 565 579 657 q 724 335 724 474 q 649 92 724 188 q 400 -19 561 -19 q 321 -4 360 -19 q 226 60 272 15 l 117 -18 l 100 -18 l 100 825 q 89 878 100 861 q 24 906 78 894 m 293 500 l 293 135 q 311 65 293 94 q 388 25 336 25 q 486 90 453 25 q 519 314 519 156 q 501 478 519 418 q 390 582 469 582 q 322 553 349 582 q 293 500 308 538 z "},"c":{"ha":617,"x_min":35,"x_max":597,"o":"m 572 151 l 597 126 q 480 19 547 57 q 332 -19 413 -19 q 118 74 201 -19 q 35 299 35 167 q 149 581 35 485 q 363 657 239 657 q 507 619 444 657 q 578 506 578 576 q 551 439 578 461 q 483 417 525 417 q 424 442 443 417 q 406 560 406 468 q 388 601 406 588 q 349 614 369 614 q 263 554 294 614 q 231 381 231 494 q 285 156 231 239 q 424 74 339 74 q 515 99 476 74 q 572 151 539 114 z "},"d":{"ha":772,"x_min":35,"x_max":742,"o":"m 742 60 l 742 28 q 571 6 613 13 q 471 -18 529 -1 l 471 72 q 396 7 425 24 q 278 -19 350 -19 q 113 64 183 -19 q 35 300 35 154 q 119 569 35 471 q 303 657 194 657 q 383 640 347 657 q 467 571 418 624 l 467 825 q 445 892 467 878 q 361 906 424 906 l 361 939 l 660 939 l 660 140 q 671 86 660 103 q 742 60 689 60 m 467 156 l 467 493 q 442 536 453 522 q 358 579 407 579 q 263 500 290 579 q 240 319 240 438 q 254 160 240 215 q 351 58 279 58 q 433 101 393 58 q 467 156 467 138 z "},"e":{"ha":617,"x_min":35,"x_max":592,"o":"m 228 392 l 414 392 q 412 481 414 446 q 401 547 410 517 q 379 593 393 578 q 326 614 360 614 q 258 575 281 614 q 228 392 228 522 m 558 174 l 592 154 q 466 19 529 58 q 317 -19 403 -19 q 124 61 201 -19 q 35 321 35 154 q 117 564 35 471 q 321 657 199 657 q 510 578 443 657 q 585 340 585 489 l 235 340 q 268 167 235 233 q 401 81 311 81 q 478 101 443 81 q 558 174 514 121 z "},"f":{"ha":463,"x_min":19,"x_max":540,"o":"m 19 0 l 19 33 q 76 49 64 39 q 99 117 99 67 l 99 579 l 19 579 l 19 640 l 99 640 q 131 850 99 786 q 351 960 186 960 q 478 926 424 960 q 540 821 540 888 q 517 759 540 783 q 453 735 494 735 q 392 759 413 735 q 371 810 371 783 q 386 856 371 829 q 401 890 401 882 q 389 910 401 904 q 360 917 376 917 q 301 878 317 917 q 292 810 292 853 l 292 640 l 413 640 l 413 579 l 292 579 l 292 143 q 313 53 292 72 q 406 33 335 33 l 406 0 l 19 0 z "},"g":{"ha":694,"x_min":39,"x_max":671,"o":"m 669 553 l 557 553 q 589 511 578 532 q 613 415 613 468 q 576 299 613 349 q 467 226 540 250 q 394 215 435 217 q 292 214 353 214 q 241 194 268 214 q 214 144 214 174 q 240 103 214 111 q 353 94 267 94 l 443 93 q 582 67 526 93 q 671 -76 671 25 q 558 -246 671 -194 q 314 -286 471 -286 q 112 -253 185 -286 q 39 -160 39 -219 q 74 -90 39 -118 q 167 -56 108 -61 q 89 -15 107 -32 q 58 63 58 13 q 117 168 58 121 q 221 221 163 204 q 96 307 140 253 q 51 436 51 361 q 122 588 51 525 q 336 657 201 657 q 411 650 374 657 q 489 626 449 643 l 669 626 l 669 553 m 450 -72 l 210 -72 q 161 -150 161 -111 q 236 -229 161 -207 q 331 -242 278 -242 q 467 -231 421 -242 q 561 -143 561 -208 q 450 -72 561 -72 m 242 432 q 256 307 242 343 q 333 253 276 253 q 411 313 390 253 q 425 432 425 353 q 414 546 425 508 q 333 614 393 614 q 256 556 276 614 q 242 432 242 517 z "},"h":{"ha":772,"x_min":22,"x_max":742,"o":"m 742 33 l 742 0 l 415 0 l 415 33 q 481 113 481 39 l 481 449 q 471 521 481 497 q 404 564 453 564 q 328 531 368 564 q 289 483 289 497 l 289 113 q 299 64 289 81 q 357 33 314 38 l 357 0 l 22 0 l 22 33 q 78 53 65 42 q 96 117 96 69 l 96 825 q 82 883 96 871 q 22 906 68 896 l 22 939 l 289 939 l 289 549 q 386 632 339 607 q 488 657 433 657 q 608 617 558 657 q 674 461 674 564 l 674 117 q 682 67 674 85 q 742 33 697 33 z "},"i":{"ha":386,"x_min":22,"x_max":354,"o":"m 354 33 l 354 0 l 22 0 l 22 33 q 78 54 67 44 q 96 117 96 71 l 96 525 q 81 584 96 569 q 22 607 67 599 l 22 640 l 289 640 l 289 113 q 301 56 289 75 q 354 33 314 38 m 83 851 q 114 928 83 896 q 192 960 144 960 q 267 928 236 960 q 299 851 299 897 q 268 775 299 806 q 192 744 238 744 q 114 775 144 744 q 83 851 83 806 z "},"j":{"ha":463,"x_min":-79,"x_max":365,"o":"m 361 640 l 361 3 q 298 -213 361 -144 q 106 -282 235 -282 q -15 -250 38 -282 q -79 -140 -79 -211 q -57 -83 -79 -108 q 7 -58 -35 -58 q 69 -85 46 -58 q 89 -133 89 -107 q 79 -168 89 -149 q 57 -215 57 -212 q 79 -235 57 -228 q 101 -239 86 -236 q 154 -211 140 -239 q 168 -133 168 -183 l 168 525 q 143 593 168 576 q 81 607 128 603 l 81 640 l 361 640 m 150 851 q 180 928 150 897 q 257 960 210 960 q 333 928 301 960 q 365 851 365 896 q 333 775 365 806 q 257 744 301 744 q 179 775 208 744 q 150 851 150 806 z "},"k":{"ha":772,"x_min":31,"x_max":754,"o":"m 713 640 l 713 608 q 643 592 667 600 q 590 559 619 583 q 524 501 560 535 q 450 426 475 456 l 719 54 q 754 33 735 33 l 754 0 l 429 0 l 429 33 q 469 39 451 33 q 488 60 488 44 q 478 87 488 69 q 454 122 468 104 l 322 308 l 290 275 l 290 117 q 302 55 290 69 q 363 33 314 40 l 363 0 l 31 0 l 31 33 q 85 63 68 33 q 97 117 97 83 l 97 825 q 81 885 97 864 q 31 906 64 906 l 31 939 l 290 939 l 290 340 l 468 518 q 488 544 479 529 q 497 568 497 560 q 483 594 497 588 q 415 608 468 600 l 415 640 l 713 640 z "},"l":{"ha":386,"x_min":22,"x_max":354,"o":"m 354 33 l 354 0 l 22 0 l 22 33 q 78 63 58 33 q 93 117 93 86 l 93 825 q 74 884 93 863 q 22 906 56 906 l 22 939 l 286 939 l 286 117 q 301 56 286 79 q 354 33 315 33 z "},"m":{"ha":1157,"x_min":22,"x_max":1131,"o":"m 1131 33 l 1131 0 l 800 0 l 800 33 q 860 60 846 33 q 868 113 868 75 l 868 449 q 860 522 868 501 q 793 564 843 564 q 713 528 754 564 q 676 483 676 497 l 676 113 q 691 54 676 75 q 742 33 706 33 l 742 0 l 417 0 l 417 33 q 475 61 460 33 q 483 113 483 76 l 483 449 q 475 522 483 501 q 407 564 458 564 q 326 528 368 564 q 292 483 292 497 l 292 113 q 304 56 292 75 q 356 33 317 38 l 356 0 l 22 0 l 22 33 q 78 51 65 42 q 99 117 99 68 l 99 525 q 76 590 99 574 q 22 607 63 601 l 22 640 l 288 640 l 288 540 q 351 611 317 585 q 488 657 411 657 q 618 614 571 657 q 669 536 644 590 q 766 627 715 597 q 875 657 817 657 q 996 617 946 657 q 1061 461 1061 564 l 1061 113 q 1069 60 1061 75 q 1131 33 1083 33 z "},"n":{"ha":772,"x_min":29,"x_max":749,"o":"m 749 33 l 749 0 l 422 0 l 422 33 q 488 113 488 39 l 488 449 q 478 521 488 497 q 411 564 460 564 q 335 531 375 564 q 296 483 296 497 l 296 113 q 306 64 296 81 q 364 33 321 38 l 364 0 l 29 0 l 29 33 q 85 53 72 42 q 103 117 103 69 l 103 525 q 88 585 103 571 q 29 607 74 600 l 29 640 l 294 640 l 294 540 q 358 611 324 585 q 494 657 418 657 q 615 617 565 657 q 681 461 681 564 l 681 113 q 689 61 681 76 q 749 33 704 33 z "},"o":{"ha":694,"x_min":35,"x_max":661,"o":"m 239 318 q 253 115 239 171 q 350 24 276 24 q 439 104 415 24 q 457 318 457 167 q 434 548 457 482 q 349 614 411 614 q 256 526 279 614 q 239 318 239 464 m 35 318 q 122 557 35 457 q 349 657 208 657 q 573 560 485 657 q 661 318 661 464 q 574 78 661 176 q 349 -19 488 -19 q 121 78 207 -19 q 35 318 35 176 z "},"p":{"ha":772,"x_min":26,"x_max":728,"o":"m 297 481 l 297 143 q 321 101 310 115 q 404 58 356 58 q 506 154 478 58 q 522 310 522 213 q 507 488 522 432 q 414 578 482 578 q 332 538 372 578 q 297 481 297 503 m 406 -256 l 406 -285 l 26 -285 l 26 -251 q 89 -229 74 -244 q 104 -171 104 -214 l 104 525 q 90 584 104 567 q 29 607 76 601 l 29 640 l 294 640 l 294 549 q 351 619 322 596 q 474 657 400 657 q 644 582 574 657 q 728 336 728 493 q 651 76 728 171 q 461 -18 574 -18 q 387 -3 421 -18 q 297 65 353 11 l 297 -131 q 326 -233 297 -207 q 406 -256 350 -256 z "},"q":{"ha":772,"x_min":47,"x_max":744,"o":"m 475 136 l 475 501 q 451 580 475 547 q 382 613 428 613 q 274 515 306 613 q 250 331 250 444 q 381 56 250 56 q 456 96 426 56 q 475 136 464 108 m 744 -251 l 744 -285 l 374 -285 l 374 -250 q 453 -224 438 -239 q 475 -135 475 -203 l 475 58 q 386 -4 436 15 q 310 -19 347 -19 q 126 60 196 -19 q 47 319 47 150 q 126 550 47 454 q 363 657 215 657 q 458 635 413 657 q 539 578 494 617 l 647 656 l 668 656 l 668 -171 q 688 -232 668 -215 q 744 -251 700 -243 z "},"r":{"ha":617,"x_min":40,"x_max":603,"o":"m 410 33 l 410 0 l 40 0 l 40 33 q 94 51 82 42 q 115 117 115 69 l 115 525 q 94 590 115 574 q 40 607 81 601 l 40 640 l 303 640 l 303 531 q 372 610 343 585 q 488 657 428 657 q 581 615 550 657 q 603 549 603 586 q 585 489 603 514 q 514 456 561 456 q 429 511 469 456 q 390 538 410 538 q 329 493 356 538 q 308 406 308 457 l 308 143 q 328 56 308 78 q 410 33 347 33 z "},"s":{"ha":540,"x_min":35,"x_max":501,"o":"m 472 453 l 438 453 q 371 569 415 528 q 265 611 326 611 q 203 588 229 611 q 176 532 176 564 q 339 396 176 472 q 501 194 501 319 q 442 38 501 94 q 283 -19 382 -19 q 201 -7 251 -19 q 107 21 154 7 q 69 -18 89 21 l 35 -18 l 35 211 l 74 211 q 142 74 93 121 q 269 28 192 28 q 343 56 318 28 q 368 119 368 83 q 283 215 368 171 q 124 300 129 296 q 38 453 38 363 q 100 600 38 543 q 258 657 163 657 q 331 647 294 657 q 407 626 367 638 q 442 654 431 626 l 472 654 l 472 453 z "},"t":{"ha":463,"x_min":28,"x_max":461,"o":"m 424 640 l 424 579 l 293 579 l 293 161 q 299 114 293 128 q 347 82 311 82 q 386 96 369 82 q 426 154 403 110 l 461 139 q 396 39 428 71 q 257 -17 340 -17 q 122 44 161 -17 q 100 129 100 81 l 100 579 l 28 579 l 28 617 q 135 718 90 669 q 258 875 192 781 l 293 875 l 293 640 l 424 640 z "},"u":{"ha":772,"x_min":22,"x_max":746,"o":"m 746 60 l 746 28 q 607 13 629 15 q 476 -18 542 4 l 476 72 q 399 14 428 31 q 279 -19 340 -19 q 132 40 181 -19 q 90 175 90 92 l 90 525 q 78 584 90 568 q 22 607 65 600 l 22 640 l 283 640 l 283 169 q 293 106 283 125 q 361 71 310 71 q 428 92 396 71 q 475 132 447 104 l 475 525 q 450 593 475 576 q 389 607 436 603 l 389 640 l 668 640 l 668 140 q 685 79 668 99 q 746 60 701 60 z "},"v":{"ha":694,"x_min":29,"x_max":674,"o":"m 674 640 l 674 607 q 632 594 643 603 q 593 531 613 579 l 371 -19 l 335 -19 l 168 392 q 119 503 149 442 q 90 565 103 539 q 66 597 76 590 q 29 607 56 603 l 29 640 l 376 640 l 376 607 q 333 603 336 603 q 303 569 303 596 q 303 562 303 567 q 315 528 304 557 l 425 246 l 525 499 q 540 561 540 536 q 519 599 540 590 q 464 607 499 607 l 464 640 l 674 640 z "},"w":{"ha":1003,"x_min":32,"x_max":982,"o":"m 982 640 l 982 607 q 946 593 957 601 q 913 538 929 579 l 697 -19 l 665 -19 l 526 401 l 519 401 l 350 -19 l 317 -19 l 111 500 q 72 586 83 571 q 32 607 60 601 l 32 640 l 340 640 l 340 607 q 302 597 317 604 q 288 565 288 589 q 306 501 288 550 q 404 244 361 360 l 499 482 l 469 574 q 454 597 463 590 q 408 607 446 603 l 408 640 l 733 640 l 733 607 q 683 600 700 607 q 667 572 667 593 q 686 488 667 558 q 750 254 749 261 q 801 388 788 353 q 861 556 861 539 q 846 594 861 586 q 794 607 831 603 l 794 640 l 982 640 z "},"x":{"ha":694,"x_min":17,"x_max":672,"o":"m 672 33 l 672 0 l 338 0 l 338 33 q 383 40 365 33 q 400 63 400 46 q 375 119 400 79 q 349 158 374 122 q 296 238 324 194 q 231 153 260 194 q 185 69 185 89 q 201 42 185 51 q 254 33 217 33 l 254 0 l 19 0 l 19 33 q 99 72 65 39 q 267 279 133 104 l 89 553 q 17 607 57 601 l 17 640 l 364 640 l 364 607 q 317 601 336 607 q 299 579 299 594 q 340 501 299 564 q 397 421 374 450 q 474 521 442 478 q 500 572 500 557 q 485 600 500 593 q 429 607 471 607 l 429 640 l 663 640 l 663 607 q 565 553 601 599 l 425 378 l 631 61 q 648 43 639 49 q 672 33 657 38 z "},"y":{"ha":694,"x_min":22,"x_max":667,"o":"m 667 640 l 667 607 q 625 594 636 603 q 586 531 604 579 l 379 -21 q 311 -185 332 -146 q 150 -285 257 -285 q 53 -247 89 -285 q 22 -176 22 -215 q 36 -125 22 -147 q 114 -86 60 -86 q 176 -111 157 -86 q 192 -157 192 -131 q 188 -182 188 -176 q 211 -206 188 -206 q 271 -161 242 -206 q 303 -92 290 -132 l 328 -18 l 161 392 q 113 503 142 442 q 83 565 96 539 q 59 597 69 590 q 22 607 49 603 l 22 640 l 369 640 l 369 607 q 310 598 325 607 q 296 569 296 589 q 308 528 296 557 q 324 489 319 500 l 424 232 l 518 499 q 531 538 529 529 q 533 561 533 546 q 513 599 533 590 q 457 607 492 607 l 457 640 l 667 640 z "},"z":{"ha":617,"x_min":29,"x_max":583,"o":"m 583 222 l 561 0 l 29 0 l 29 35 l 354 596 q 174 576 215 596 q 89 443 114 549 l 53 443 l 63 640 l 578 640 l 578 604 l 257 44 l 300 44 q 366 47 336 44 q 419 58 396 50 q 507 135 471 78 q 544 222 535 176 l 583 222 z "},"{":{"ha":547,"x_min":31,"x_max":472,"o":"m 179 -47 l 179 201 q 151 306 179 274 q 31 363 119 343 q 149 417 118 382 q 179 524 179 451 l 179 772 q 256 935 179 892 q 472 969 317 969 l 472 953 q 358 897 390 938 q 325 781 325 856 l 325 543 q 297 426 325 463 q 167 364 263 382 q 296 300 263 344 q 325 182 325 263 l 325 -56 q 358 -172 325 -132 q 472 -226 390 -212 l 472 -243 q 257 -208 319 -243 q 179 -47 179 -165 z "},"|":{"ha":306,"x_min":92,"x_max":214,"o":"m 92 -26 l 92 960 l 214 960 l 214 -26 l 92 -26 z "},"}":{"ha":547,"x_min":75,"x_max":517,"o":"m 75 -243 l 75 -226 q 190 -170 157 -211 q 222 -54 222 -129 l 222 183 q 250 300 222 264 q 381 363 285 344 q 253 423 285 382 q 222 544 222 464 l 222 782 q 192 896 222 858 q 75 953 157 939 l 75 969 q 290 935 228 969 q 368 774 368 892 l 368 525 q 398 418 368 453 q 517 364 428 383 q 399 310 429 344 q 368 203 368 275 l 368 -46 q 292 -208 368 -165 q 75 -243 231 -243 z "},"~":{"ha":722,"x_min":40,"x_max":682,"o":"m 632 463 l 682 365 q 613 283 639 306 q 508 246 567 246 q 418 265 464 246 q 367 292 406 271 q 294 325 328 314 q 207 340 250 340 q 135 308 167 340 q 90 240 110 283 l 40 338 q 103 419 68 392 q 214 457 149 457 q 289 444 249 457 q 368 413 315 436 q 446 379 406 396 q 510 363 486 363 q 579 394 546 363 q 632 463 601 415 z "},"‚":{"ha":463,"x_min":110,"x_max":365,"o":"m 135 -250 l 119 -219 q 210 -147 175 -182 q 271 -36 271 -86 q 243 -6 271 -6 l 213 -8 q 147 13 174 -8 q 110 101 110 42 q 142 185 110 154 q 224 215 174 215 q 332 164 294 215 q 365 57 365 119 q 278 -146 365 -56 q 135 -250 228 -197 z "},"ƒ":{"ha":694,"x_min":0,"x_max":692,"o":"m 103 547 l 103 611 l 269 611 q 333 833 293 753 q 549 981 408 981 q 653 951 615 981 q 692 871 692 921 q 671 813 692 838 q 619 788 650 788 q 566 806 589 788 q 543 853 543 825 q 556 893 543 869 q 568 918 568 917 q 564 928 567 925 q 538 939 554 939 q 458 856 479 939 q 447 736 447 811 l 447 611 l 617 611 l 617 547 l 447 547 q 441 363 447 439 q 422 185 435 288 q 338 -90 401 11 q 129 -215 260 -215 q 28 -179 63 -215 q 0 -108 0 -150 q 24 -47 0 -65 q 75 -28 47 -28 q 128 -44 107 -28 q 150 -96 150 -61 q 138 -131 150 -115 q 125 -153 125 -146 q 156 -174 125 -174 q 213 -143 189 -174 q 246 -17 246 -100 l 264 547 l 103 547 z "},"„":{"ha":694,"x_min":19,"x_max":650,"o":"m 419 -250 l 404 -219 q 494 -147 460 -182 q 556 -36 556 -86 q 528 -6 556 -6 l 497 -8 q 432 13 458 -8 q 394 101 394 42 q 426 185 394 154 q 508 215 458 215 q 617 164 579 215 q 650 57 650 119 q 563 -146 650 -56 q 419 -250 513 -197 m 44 -250 l 29 -219 q 119 -147 85 -182 q 181 -36 181 -86 q 153 -6 181 -6 l 122 -8 q 57 13 83 -8 q 19 101 19 42 q 51 185 19 154 q 133 215 83 215 q 242 164 204 215 q 275 57 275 119 q 188 -146 275 -56 q 44 -250 138 -197 z "},"…":{"ha":1389,"x_min":114,"x_max":1274,"o":"m 114 99 q 148 181 114 146 q 231 217 182 217 q 314 182 279 217 q 349 99 349 147 q 314 15 349 49 q 231 -18 279 -18 q 147 15 181 -18 q 114 99 114 49 m 576 99 q 610 181 576 146 q 693 217 644 217 q 776 182 742 217 q 811 99 811 147 q 776 15 811 49 q 693 -18 742 -18 q 610 15 643 -18 q 576 99 576 49 m 1039 99 q 1073 181 1039 146 q 1156 217 1107 217 q 1239 182 1204 217 q 1274 99 1274 147 q 1239 15 1274 49 q 1156 -18 1204 -18 q 1072 15 1106 -18 q 1039 99 1039 49 z "},"†":{"ha":694,"x_min":65,"x_max":629,"o":"m 363 -186 l 333 -186 l 326 14 q 304 219 326 122 q 256 371 279 294 q 308 467 285 410 q 331 619 331 524 q 196 579 263 619 q 133 560 164 560 q 83 582 100 560 q 65 632 65 604 q 82 688 65 668 q 135 708 99 708 q 217 678 164 708 q 331 647 269 647 q 300 799 331 744 q 269 878 269 853 q 288 935 269 910 q 347 960 307 960 q 406 940 385 960 q 426 888 426 921 q 394 793 426 856 q 363 647 363 731 q 457 672 413 654 q 558 708 542 708 q 618 678 600 708 q 629 633 629 658 q 560 561 629 561 q 474 590 531 561 q 363 619 417 619 q 401 442 363 524 q 442 372 421 407 l 418 307 q 386 188 393 219 q 369 14 369 108 l 363 -186 z "},"‡":{"ha":694,"x_min":63,"x_max":633,"o":"m 564 565 q 503 582 538 565 q 364 619 425 619 q 386 482 364 540 q 439 388 413 435 q 389 293 410 350 q 364 154 364 226 q 497 190 419 154 q 568 208 536 208 q 633 136 633 208 q 613 91 633 108 q 561 74 593 74 q 477 102 543 74 q 364 131 411 131 q 394 -14 364 54 q 425 -107 425 -82 q 403 -162 425 -142 q 346 -183 381 -183 q 299 -168 318 -183 q 274 -110 274 -149 q 292 -42 274 -79 q 332 129 332 42 l 307 129 q 242 113 281 129 q 133 74 151 74 q 75 100 93 74 q 63 142 63 118 q 81 192 63 172 q 132 211 99 211 q 222 183 157 211 q 332 154 286 154 q 311 281 332 224 q 256 388 297 318 q 308 488 294 451 q 332 619 332 547 q 218 592 279 619 q 132 564 157 564 q 82 583 101 564 q 63 633 63 603 q 83 683 63 664 q 133 701 103 701 q 218 674 158 701 q 307 646 278 646 l 332 644 q 303 794 332 728 q 274 886 274 861 q 296 942 274 924 q 346 960 318 960 q 402 938 379 960 q 425 883 425 917 q 394 790 425 860 q 364 644 364 721 q 480 673 414 644 q 561 701 546 701 q 613 684 593 701 q 633 635 633 667 q 564 565 633 565 z "},"ˆ":{"ha":463,"x_min":-3,"x_max":465,"o":"m 386 733 l 231 869 l 75 733 l -3 733 l 167 978 l 294 978 l 465 733 l 386 733 z "},"‰":{"ha":1389,"x_min":10,"x_max":1382,"o":"m 794 981 l 186 -40 l 119 -40 l 654 861 l 651 864 q 581 825 621 839 q 501 811 540 811 q 464 815 485 811 q 418 829 443 818 l 422 768 q 371 569 422 661 q 178 447 303 447 q 68 492 117 447 q 10 633 10 544 q 106 861 10 772 q 275 936 186 936 q 342 924 315 936 q 381 896 353 918 q 425 867 408 874 q 499 854 453 854 q 650 903 582 854 q 728 981 689 931 l 794 981 m 143 588 q 151 529 143 549 q 215 489 168 489 q 334 581 282 489 q 386 774 386 672 l 382 814 q 364 843 378 835 q 347 851 361 844 q 313 869 332 857 q 286 881 294 881 q 190 774 238 881 q 143 588 143 668 m 967 164 q 1053 381 967 293 q 1233 463 1133 463 q 1344 418 1307 463 q 1382 290 1382 374 q 1329 97 1382 192 q 1143 -25 1260 -25 q 1031 13 1078 -25 q 967 164 967 64 m 1103 115 q 1119 37 1103 60 q 1172 14 1136 14 q 1304 126 1251 14 q 1347 296 1347 218 q 1313 397 1347 367 q 1265 417 1290 417 q 1147 293 1200 417 q 1103 115 1103 190 m 464 174 q 544 372 464 282 q 732 463 625 463 q 843 418 806 463 q 881 290 881 374 q 828 97 881 190 q 642 -25 758 -25 q 533 10 581 -25 q 464 174 464 61 m 600 115 q 608 51 600 71 q 671 14 625 14 q 803 126 750 14 q 846 296 846 218 q 811 397 846 367 q 764 417 789 417 q 647 296 701 417 q 600 115 600 190 z "},"Š":{"ha":772,"x_min":49,"x_max":713,"o":"m 672 660 l 633 660 q 550 824 608 754 q 361 917 471 917 q 257 883 301 917 q 213 785 213 849 q 241 697 213 729 q 356 621 269 664 l 560 519 q 653 440 613 493 q 713 264 713 363 q 636 74 713 154 q 368 -26 542 -26 q 245 -11 301 -26 q 131 21 189 4 q 103 8 111 21 q 89 -26 94 -6 l 49 -26 l 49 317 l 89 317 q 175 115 114 192 q 374 19 251 19 q 502 63 457 19 q 547 175 547 107 q 504 278 547 238 q 392 344 475 304 l 299 389 q 92 556 144 463 q 61 686 61 610 q 154 894 61 818 q 368 960 235 960 q 505 937 433 960 q 585 914 576 914 q 621 935 610 914 q 631 961 626 944 l 672 961 l 672 660 m 621 1269 l 450 1025 l 322 1025 l 153 1269 l 231 1269 l 386 1132 l 542 1269 l 621 1269 z "},"‹":{"ha":463,"x_min":71,"x_max":424,"o":"m 357 82 l 71 313 l 71 318 l 353 546 q 376 565 363 554 q 403 576 389 576 q 421 557 421 576 q 329 404 421 526 q 260 315 314 383 q 356 190 319 238 q 424 75 424 101 q 407 50 424 50 q 392 55 400 50 q 357 82 383 60 z "},"Œ":{"ha":1389,"x_min":31,"x_max":1363,"o":"m 656 294 l 656 699 q 639 850 656 815 q 518 906 613 906 q 308 739 371 906 q 267 450 267 628 q 342 104 267 197 q 508 38 396 38 q 638 99 611 38 q 656 294 656 139 m 1363 293 l 1304 0 l 707 0 l 576 -3 l 496 -7 q 158 118 282 -7 q 31 482 31 247 q 64 661 31 574 q 208 857 111 785 q 528 950 333 950 l 636 944 l 733 939 l 1306 939 l 1306 660 l 1269 660 q 1204 824 1250 776 q 972 890 1139 890 q 890 884 910 890 q 871 854 871 878 l 871 508 q 1043 581 1007 508 q 1081 714 1058 611 l 1113 714 l 1113 244 l 1081 244 q 1036 399 1064 360 q 871 463 992 463 l 871 115 q 882 69 871 81 q 965 49 901 49 q 1160 88 1088 49 q 1325 293 1260 142 l 1363 293 z "},"‘":{"ha":463,"x_min":97,"x_max":353,"o":"m 328 960 l 343 929 q 253 857 288 892 q 192 746 192 796 q 219 715 192 715 l 250 718 q 315 697 289 718 q 353 608 353 668 q 321 525 353 556 q 239 494 289 494 q 133 542 168 494 q 97 653 97 590 q 185 856 97 765 q 328 960 235 907 z "},"’":{"ha":463,"x_min":110,"x_max":365,"o":"m 135 494 l 119 525 q 210 597 175 563 q 271 708 271 658 q 243 739 271 739 l 213 736 q 147 757 174 736 q 110 846 110 786 q 142 929 110 899 q 224 960 174 960 q 332 908 294 960 q 365 801 365 864 q 278 599 365 689 q 135 494 228 547 z "},"“":{"ha":694,"x_min":44,"x_max":675,"o":"m 275 960 l 290 929 q 200 857 235 892 q 139 746 139 796 q 167 715 139 715 l 197 718 q 263 697 236 718 q 300 608 300 668 q 268 525 300 556 q 186 494 236 494 q 80 542 115 494 q 44 653 44 590 q 132 856 44 765 q 275 960 182 907 m 650 960 l 665 929 q 575 857 610 892 q 514 746 514 796 q 542 715 514 715 l 572 718 q 638 697 611 718 q 675 608 675 668 q 643 525 675 556 q 561 494 611 494 q 455 542 490 494 q 419 653 419 590 q 507 856 419 765 q 650 960 557 907 z "},"”":{"ha":694,"x_min":19,"x_max":650,"o":"m 419 494 l 404 525 q 494 597 460 563 q 556 708 556 658 q 528 739 556 739 l 497 736 q 432 757 458 736 q 394 846 394 786 q 426 929 394 899 q 508 960 458 960 q 617 908 579 960 q 650 801 650 864 q 563 599 650 689 q 419 494 513 547 m 44 494 l 29 525 q 119 597 85 563 q 181 708 181 658 q 153 739 181 739 l 122 736 q 57 757 83 736 q 19 846 19 786 q 51 929 19 899 q 133 960 83 960 q 242 908 204 960 q 275 801 275 864 q 188 599 275 689 q 44 494 138 547 z "},"•":{"ha":486,"x_min":49,"x_max":438,"o":"m 49 469 q 106 607 49 550 q 243 664 163 664 q 381 608 325 664 q 438 469 438 551 q 382 331 438 386 q 243 275 326 275 q 106 331 164 275 q 49 469 49 388 z "},"–":{"ha":694,"x_min":0,"x_max":694,"o":"m 0 376 l 694 376 l 694 251 l 0 251 l 0 376 z "},"—":{"ha":1389,"x_min":0,"x_max":1389,"o":"m 0 376 l 1389 376 l 1389 251 l 0 251 l 0 376 z "},"˜":{"ha":463,"x_min":-22,"x_max":485,"o":"m 36 763 l -22 763 q 36 894 -4 853 q 142 936 76 936 q 214 921 172 936 q 240 910 236 911 l 296 885 q 330 871 319 874 q 351 868 340 868 q 404 893 385 868 q 425 936 414 907 l 485 936 q 443 831 467 867 q 317 760 396 760 q 274 765 297 760 q 233 779 251 771 l 193 797 q 131 824 143 819 q 104 828 119 828 q 55 806 74 828 q 36 763 36 785 z "},"™":{"ha":1389,"x_min":33,"x_max":1357,"o":"m 349 906 l 349 476 q 358 421 349 432 q 419 410 368 410 l 419 378 l 150 378 l 150 410 q 210 421 200 410 q 219 476 219 432 l 219 906 l 156 906 q 97 881 118 906 q 65 817 75 857 l 33 817 l 33 939 l 536 939 l 536 817 l 504 817 q 475 879 494 857 q 413 906 451 906 l 349 906 m 928 376 l 733 782 l 731 506 q 743 430 731 450 q 803 410 756 410 l 803 378 l 618 378 l 618 410 q 677 430 664 410 q 690 506 690 450 l 690 835 q 593 907 658 907 l 593 939 l 786 939 l 983 538 l 1193 939 l 1357 939 l 1357 907 q 1297 892 1313 907 q 1282 840 1282 876 l 1282 476 q 1292 421 1282 432 q 1353 410 1301 410 l 1353 378 l 1083 378 l 1083 410 q 1150 431 1143 410 q 1153 476 1153 439 l 1153 785 l 946 376 l 928 376 z "},"š":{"ha":540,"x_min":35,"x_max":504,"o":"m 472 453 l 438 453 q 371 569 415 528 q 265 611 326 611 q 203 588 229 611 q 176 532 176 564 q 339 396 176 472 q 501 194 501 319 q 442 38 501 94 q 283 -19 382 -19 q 201 -7 251 -19 q 107 21 154 7 q 69 -18 89 21 l 35 -18 l 35 211 l 74 211 q 142 74 93 121 q 269 28 192 28 q 343 56 318 28 q 368 119 368 83 q 283 215 368 171 q 124 300 129 296 q 38 453 38 363 q 100 600 38 543 q 258 657 163 657 q 331 647 294 657 q 407 626 367 638 q 442 654 431 626 l 472 654 l 472 453 m 504 978 l 333 733 l 206 733 l 36 978 l 114 978 l 269 840 l 425 978 l 504 978 z "},"›":{"ha":463,"x_min":39,"x_max":392,"o":"m 106 544 l 392 314 l 392 308 l 110 81 q 82 58 85 61 q 60 50 69 50 q 42 69 42 50 q 133 222 42 100 q 203 311 149 243 q 107 436 143 389 q 39 551 39 525 q 56 576 39 576 q 71 572 63 576 q 106 544 79 567 z "},"œ":{"ha":1003,"x_min":31,"x_max":967,"o":"m 617 392 l 793 392 q 781 557 793 515 q 707 617 763 617 q 640 581 663 617 q 617 467 617 544 l 617 392 m 939 174 l 967 151 q 871 40 913 74 q 699 -19 796 -19 q 582 4 626 -19 q 532 47 560 17 q 468 6 499 19 q 333 -19 411 -19 q 108 85 193 -19 q 31 315 31 179 q 116 559 31 461 q 338 657 201 657 q 463 632 413 657 q 518 589 488 619 q 586 633 557 619 q 690 657 635 657 q 903 563 833 657 q 963 340 963 481 l 617 340 q 636 176 617 231 q 771 81 671 81 q 872 110 829 81 q 939 174 899 126 m 428 207 l 428 432 q 406 575 428 533 q 329 617 385 617 q 254 561 276 617 q 232 336 232 506 q 263 69 232 135 q 342 22 285 22 q 411 81 390 22 q 428 207 428 128 z "},"Ÿ":{"ha":1003,"x_min":21,"x_max":971,"o":"m 971 939 l 971 904 q 910 886 929 897 q 876 850 892 875 l 611 418 l 611 163 q 638 60 611 82 q 739 35 658 43 l 739 0 l 257 0 l 257 35 q 357 58 338 43 q 386 163 386 82 l 386 367 l 132 828 q 114 857 119 850 q 21 904 75 904 l 21 939 l 486 939 l 486 904 q 394 896 414 904 q 374 857 374 888 q 388 817 374 844 q 407 779 401 790 l 574 457 l 728 714 q 758 769 744 739 q 782 843 782 819 q 751 892 782 879 q 665 904 721 904 l 665 939 l 971 939 m 296 1128 q 319 1189 296 1160 q 383 1218 342 1218 q 447 1191 421 1218 q 472 1126 472 1164 q 447 1064 472 1090 q 383 1038 422 1038 q 319 1067 343 1038 q 296 1128 296 1097 m 588 1128 q 610 1189 588 1160 q 674 1218 633 1218 q 738 1192 711 1218 q 764 1126 764 1165 q 738 1063 764 1089 q 674 1038 713 1038 q 610 1067 633 1038 q 588 1128 588 1096 z "}," ":{"ha":694,"x_min":0,"x_max":0,"o":""},"¡":{"ha":463,"x_min":114,"x_max":350,"o":"m 349 579 q 315 497 349 532 q 232 461 281 461 q 149 496 183 461 q 114 579 114 531 q 149 663 114 629 q 232 696 183 696 q 315 663 282 696 q 349 579 349 629 m 213 353 l 253 353 q 299 71 269 188 q 350 -144 350 -131 q 318 -246 350 -210 q 232 -282 286 -282 q 147 -247 178 -282 q 115 -144 115 -211 q 136 -31 115 -97 q 213 353 193 149 z "},"¢":{"ha":694,"x_min":74,"x_max":636,"o":"m 313 178 l 446 551 q 428 599 446 583 q 388 614 410 614 q 301 551 332 614 q 269 381 269 489 q 313 178 269 260 m 596 817 l 529 628 q 593 578 569 608 q 617 506 617 547 q 590 439 617 461 q 525 417 564 417 q 464 444 486 417 l 350 125 q 463 74 397 74 q 558 100 518 74 q 611 151 581 115 l 636 126 q 520 19 589 58 q 372 -19 451 -19 q 301 -10 332 -19 l 236 -194 l 181 -194 l 251 7 q 125 115 172 42 q 74 311 74 197 q 178 571 74 475 q 399 657 271 657 q 479 646 438 657 l 540 817 l 596 817 z "},"£":{"ha":694,"x_min":29,"x_max":663,"o":"m 533 518 l 533 428 l 382 428 q 384 383 383 410 q 385 332 385 357 q 357 186 385 261 q 424 165 385 175 q 488 156 464 156 q 593 182 561 156 q 631 254 617 201 l 663 254 q 632 79 663 146 q 479 -19 586 -19 q 408 -6 439 -19 q 307 68 365 14 q 256 14 278 29 q 144 -18 210 -18 q 78 0 108 -18 q 29 94 29 29 q 49 175 29 146 q 175 228 83 228 q 212 226 197 228 q 247 218 226 224 q 219 350 247 271 q 190 428 204 389 l 54 428 l 54 518 l 165 518 q 150 610 154 582 q 146 676 146 638 q 204 854 146 779 q 424 950 279 950 q 584 906 531 950 q 638 793 638 863 q 614 722 638 750 q 539 693 590 693 q 480 717 503 693 q 457 783 457 742 l 460 844 q 457 871 460 861 q 399 908 446 908 q 338 880 356 908 q 321 810 321 851 q 344 667 321 790 q 375 518 368 544 l 533 518 m 74 92 q 101 38 74 56 q 149 24 122 24 q 233 72 207 24 q 251 119 244 92 q 211 150 225 143 q 147 164 185 164 q 88 136 107 164 q 74 92 74 115 z "},"¤":{"ha":694,"x_min":-36,"x_max":731,"o":"m 524 469 q 473 598 524 543 q 346 653 422 653 q 221 599 271 653 q 171 469 171 544 q 222 338 171 393 q 346 283 272 283 q 473 338 422 283 q 524 469 524 393 m -36 165 l 100 301 q 49 469 49 371 q 62 562 49 521 q 100 638 75 603 l -36 774 l 44 851 l 178 718 q 346 767 250 767 q 440 755 400 767 q 517 718 481 743 l 650 851 l 731 774 l 594 638 q 631 560 617 604 q 646 469 646 515 q 594 301 646 367 l 731 165 l 650 85 l 517 221 q 438 184 483 199 q 346 169 393 169 q 256 183 297 169 q 178 221 214 196 l 44 85 l -36 165 z "},"¥":{"ha":694,"x_min":-89,"x_max":760,"o":"m 625 406 l 443 406 l 438 390 l 438 297 l 625 297 l 625 228 l 438 228 l 438 160 q 472 58 438 82 q 575 35 496 42 l 575 0 l 115 0 l 115 35 q 219 57 197 42 q 257 160 257 82 l 257 228 l 69 228 l 69 297 l 257 297 l 257 376 l 242 406 l 69 406 l 69 475 l 207 475 l 26 829 q -14 881 10 864 q -89 903 -44 903 l -89 939 l 329 939 l 329 903 q 246 893 269 903 q 222 858 222 883 q 283 715 222 836 q 406 478 344 594 l 532 718 q 568 786 558 763 q 583 844 583 819 q 555 892 583 881 q 475 903 526 903 l 475 939 l 760 939 l 760 903 q 717 894 726 899 q 671 851 686 882 l 519 567 l 471 475 l 625 475 l 625 406 z "},"¦":{"ha":306,"x_min":92,"x_max":214,"o":"m 92 -26 l 92 358 l 214 358 l 214 -26 l 92 -26 m 92 575 l 92 960 l 214 960 l 214 575 l 92 575 z "},"§":{"ha":694,"x_min":79,"x_max":615,"o":"m 561 -6 q 499 -132 561 -81 q 329 -183 438 -183 q 196 -149 256 -183 q 125 -42 125 -107 q 154 24 125 -4 q 211 46 178 46 q 278 21 253 46 q 303 -31 303 -4 q 282 -74 303 -56 q 239 -111 261 -92 q 249 -126 239 -117 q 338 -151 275 -151 q 418 -125 393 -151 q 443 -56 443 -99 q 430 3 443 -18 q 392 44 417 24 l 313 108 q 165 236 196 207 q 79 404 79 318 q 153 554 79 515 q 271 576 194 576 l 274 579 q 200 646 213 633 q 138 775 138 710 q 195 909 138 858 q 336 960 253 960 q 500 907 440 960 q 546 826 546 867 q 510 753 546 779 q 458 733 483 733 q 399 758 425 733 q 372 813 372 783 q 411 874 372 839 q 431 899 431 892 q 405 920 431 913 q 347 928 379 928 q 271 901 301 928 q 240 828 240 875 q 338 704 240 781 q 518 558 494 582 q 615 364 615 463 q 543 222 615 261 q 424 200 501 200 q 522 108 489 154 q 561 -6 561 54 m 183 468 q 210 390 183 424 q 307 300 231 364 q 368 254 342 271 q 433 232 404 232 q 491 256 472 232 q 510 313 510 281 q 500 360 510 342 q 450 419 490 379 q 379 482 419 450 q 261 544 300 544 q 214 531 235 544 q 183 468 183 510 z "},"¨":{"ha":463,"x_min":-3,"x_max":465,"o":"m -3 836 q 20 897 -3 868 q 85 926 43 926 q 148 899 122 926 q 174 835 174 872 q 149 772 174 799 q 85 746 124 746 q 21 776 44 746 q -3 836 -3 806 m 289 836 q 312 897 289 868 q 375 926 335 926 q 439 900 413 926 q 465 835 465 874 q 440 772 465 797 q 375 746 414 746 q 312 775 335 746 q 289 836 289 804 z "},"©":{"ha":1038,"x_min":36,"x_max":1001,"o":"m 519 -26 q 175 115 314 -26 q 36 465 36 257 q 174 817 36 675 q 519 960 313 960 q 863 817 725 960 q 1001 465 1001 675 q 863 116 1001 258 q 519 -26 725 -26 m 519 46 q 792 169 681 46 q 903 465 903 293 q 792 763 903 639 q 519 888 682 888 q 247 763 358 888 q 135 465 135 639 q 246 169 135 292 q 519 46 357 46 m 729 356 l 756 356 l 733 253 q 718 233 733 240 q 694 222 703 225 q 635 208 660 214 q 546 197 583 197 q 329 267 408 197 q 244 481 244 340 q 313 663 244 588 q 557 756 397 756 q 642 747 606 756 q 701 729 660 743 q 732 700 732 719 l 732 600 l 706 600 q 663 683 693 653 q 556 724 622 724 q 429 660 472 724 q 386 488 386 597 q 424 304 386 368 q 560 229 467 229 q 661 263 619 229 q 729 356 703 297 z "},"ª":{"ha":417,"x_min":-1,"x_max":418,"o":"m 404 615 l 418 599 q 373 565 399 578 q 319 551 347 551 q 260 571 278 551 q 243 608 250 582 q 177 567 214 582 q 100 551 140 551 q 33 572 61 551 q -1 644 -1 597 q 72 740 -1 703 q 240 796 121 765 l 240 851 q 228 903 240 888 q 168 924 211 924 q 129 914 144 924 q 114 894 114 904 q 128 872 114 888 q 142 843 142 857 q 123 808 142 821 q 76 796 104 796 q 32 809 47 796 q 17 853 17 822 q 63 925 17 894 q 192 956 108 956 q 323 927 274 956 q 372 842 372 899 l 372 625 q 386 604 372 604 q 396 607 394 606 l 404 615 m 239 646 l 239 767 q 163 728 192 754 q 135 665 135 701 q 145 626 135 643 q 178 610 156 610 q 210 617 196 610 q 239 646 225 625 z "},"«":{"ha":694,"x_min":32,"x_max":657,"o":"m 318 82 l 32 313 l 32 318 l 314 546 q 337 565 324 554 q 364 576 350 576 q 382 557 382 576 q 290 404 382 526 q 221 315 275 383 q 317 190 281 238 q 385 75 385 101 q 368 50 385 50 q 353 55 361 50 q 318 82 344 60 m 590 82 l 304 313 l 304 318 l 586 546 q 609 565 596 554 q 636 576 622 576 q 654 557 654 576 q 563 404 654 526 q 493 315 547 383 q 589 190 553 238 q 657 75 657 101 q 640 50 657 50 q 625 55 633 50 q 590 82 617 60 z "},"¬":{"ha":792,"x_min":46,"x_max":746,"o":"m 624 150 l 624 432 l 46 432 l 46 554 l 746 554 l 746 150 l 624 150 z "},"­":{"ha":792,"x_min":46,"x_max":746,"o":"m 746 290 l 46 290 l 46 413 l 746 413 l 746 290 z "},"®":{"ha":1038,"x_min":36,"x_max":1001,"o":"m 519 -26 q 175 115 314 -26 q 36 465 36 257 q 174 817 36 675 q 519 960 313 960 q 863 817 725 960 q 1001 465 1001 675 q 863 116 1001 258 q 519 -26 725 -26 m 519 46 q 792 169 681 46 q 903 465 903 293 q 792 763 903 639 q 519 888 682 888 q 247 763 358 888 q 135 465 135 639 q 246 169 135 292 q 519 46 357 46 m 288 714 l 288 739 l 556 739 q 670 706 625 739 q 715 604 715 672 q 685 516 715 556 q 604 460 656 476 l 685 346 q 782 228 740 268 l 782 213 l 669 213 q 585 321 642 213 q 514 444 543 400 l 463 444 l 463 299 q 471 247 463 257 q 526 238 479 238 l 526 213 l 288 213 l 288 238 q 342 248 333 238 q 351 299 351 258 l 351 653 q 343 704 351 694 q 288 714 335 714 m 463 708 l 463 475 l 511 475 q 576 510 556 475 q 597 599 597 546 q 574 682 597 656 q 513 708 551 708 l 463 708 z "},"¯":{"ha":463,"x_min":1,"x_max":460,"o":"m 460 885 l 460 785 l 1 785 l 1 885 l 460 885 z "},"°":{"ha":556,"x_min":79,"x_max":476,"o":"m 278 608 q 378 653 336 608 q 419 757 419 697 q 378 862 419 818 q 278 906 338 906 q 178 861 219 906 q 136 757 136 817 q 177 652 136 696 q 278 608 218 608 m 278 558 q 137 616 194 558 q 79 757 79 674 q 137 898 79 840 q 278 956 194 956 q 419 898 361 956 q 476 757 476 840 q 419 616 476 674 q 278 558 361 558 z "},"±":{"ha":792,"x_min":46,"x_max":746,"o":"m 335 499 l 335 703 l 457 703 l 457 499 l 746 499 l 746 376 l 457 376 l 457 178 l 335 178 l 335 376 l 46 376 l 46 499 l 335 499 m 46 0 l 46 122 l 746 122 l 746 0 l 46 0 z "},"²":{"ha":417,"x_min":0,"x_max":417,"o":"m 417 558 l 375 382 l 0 382 l 0 401 q 131 535 90 490 q 224 655 193 603 q 256 754 256 707 q 225 831 256 800 q 149 861 194 861 q 88 842 114 861 q 46 786 63 822 l 13 786 q 69 888 36 850 q 211 956 128 956 q 315 926 271 956 q 378 800 378 885 q 365 736 378 765 q 275 621 342 681 l 138 493 l 265 493 q 355 503 335 493 q 394 558 375 514 l 417 558 z "},"³":{"ha":417,"x_min":4,"x_max":413,"o":"m 50 819 l 22 829 q 93 911 46 876 q 225 956 154 956 q 335 928 293 956 q 376 844 376 900 q 354 775 376 801 q 301 738 339 758 q 383 679 354 719 q 413 590 413 639 q 336 436 413 500 q 140 372 260 372 q 68 382 100 372 q 4 449 4 401 q 20 483 4 468 q 60 504 36 497 q 128 479 96 504 q 218 422 201 422 q 279 442 256 422 q 308 513 308 465 q 244 629 308 585 q 128 681 208 654 l 128 694 q 201 725 178 708 q 244 804 244 754 q 222 866 244 843 q 149 889 199 889 q 85 863 114 889 q 50 819 69 849 z "},"´":{"ha":463,"x_min":119,"x_max":450,"o":"m 394 856 l 197 733 l 119 733 l 310 951 q 348 983 331 975 q 382 990 365 990 q 425 979 408 990 q 450 929 450 963 q 437 888 450 903 q 394 856 424 874 z "},"µ":{"ha":772,"x_min":46,"x_max":744,"o":"m 660 640 l 660 140 q 675 94 660 111 q 710 75 690 78 q 744 83 726 74 l 744 50 q 681 1 706 15 q 599 -18 644 -18 q 514 -1 550 -18 q 457 54 478 15 q 397 0 429 18 q 324 -18 365 -18 q 244 -6 279 -18 q 182 28 208 6 l 179 25 q 224 -178 201 -76 q 203 -257 224 -228 q 140 -286 182 -286 q 69 -258 92 -286 q 46 -178 46 -229 q 78 -24 64 -96 q 92 122 92 49 l 92 640 l 285 640 l 285 207 q 311 128 285 156 q 367 104 333 104 q 416 115 386 104 q 467 142 446 126 l 467 640 l 660 640 z "},"¶":{"ha":750,"x_min":0,"x_max":721,"o":"m 407 904 l 407 -258 l 164 -258 l 164 -224 q 251 -209 232 -217 q 272 -185 269 -201 q 275 -137 275 -168 q 276 -85 275 -107 l 276 368 q 73 449 146 368 q 0 664 0 531 q 74 874 0 808 q 304 939 147 939 l 721 939 l 721 904 q 660 899 663 899 q 611 859 615 892 q 607 796 607 826 l 607 765 l 607 -85 q 608 -143 607 -118 q 612 -188 608 -168 q 657 -217 615 -208 q 714 -224 672 -219 l 714 -258 l 476 -258 l 476 904 l 407 904 m 276 403 l 276 904 q 163 836 196 888 q 125 661 125 779 q 172 481 125 550 q 276 403 213 421 z "},"·":{"ha":347,"x_min":57,"x_max":292,"o":"m 57 461 q 91 544 57 508 q 174 579 125 579 q 257 544 222 579 q 292 461 292 510 q 257 378 292 411 q 174 344 222 344 q 90 378 124 344 q 57 461 57 411 z "},"¸":{"ha":463,"x_min":94,"x_max":408,"o":"m 161 -133 l 221 0 l 279 0 l 240 -89 q 262 -83 257 -83 q 283 -82 267 -82 q 374 -106 340 -82 q 408 -179 408 -129 q 335 -283 408 -253 q 221 -303 289 -303 q 158 -297 190 -303 q 94 -278 125 -290 l 117 -226 q 154 -240 135 -233 q 199 -246 174 -246 q 259 -232 239 -246 q 279 -189 279 -218 q 261 -151 279 -164 q 215 -139 243 -139 q 192 -141 203 -139 q 176 -144 182 -143 l 161 -133 z "},"¹":{"ha":417,"x_min":39,"x_max":379,"o":"m 379 410 l 379 382 l 42 382 l 42 410 q 133 431 113 410 q 149 493 149 446 l 149 800 q 143 841 149 825 q 114 857 138 857 q 74 849 99 857 q 39 836 50 840 l 39 865 l 267 956 l 282 956 l 282 488 q 299 426 282 442 q 379 410 317 410 z "},"º":{"ha":458,"x_min":25,"x_max":433,"o":"m 229 579 q 285 619 272 579 q 297 753 297 660 q 283 889 297 851 q 229 926 268 926 q 175 888 190 926 q 160 753 160 849 q 173 620 160 661 q 229 579 186 579 m 229 551 q 81 609 138 551 q 25 753 25 667 q 83 898 25 840 q 229 956 140 956 q 376 898 318 956 q 433 753 433 840 q 376 610 433 668 q 229 551 319 551 z "},"»":{"ha":694,"x_min":38,"x_max":663,"o":"m 104 544 l 390 314 l 390 308 l 108 81 q 81 58 83 61 q 58 50 68 50 q 40 69 40 50 q 132 222 40 100 q 201 311 147 243 q 106 436 142 389 q 38 551 38 525 q 54 576 38 576 q 69 572 61 576 q 104 544 78 567 m 376 544 l 663 314 l 663 308 l 381 81 q 353 58 356 61 q 331 50 340 50 q 313 69 313 50 q 404 222 313 100 q 474 311 419 243 q 378 436 414 389 q 310 551 310 525 q 326 576 310 576 q 342 572 333 576 q 376 544 350 567 z "},"¼":{"ha":1042,"x_min":39,"x_max":1032,"o":"m 975 213 l 1032 213 l 1032 121 l 975 121 l 975 0 l 844 0 l 844 121 l 621 121 l 621 214 q 760 400 671 290 q 903 574 804 454 l 975 574 l 975 213 m 846 213 l 846 451 l 658 215 l 846 213 m 854 956 l 932 956 l 322 -17 l 242 -17 l 854 956 m 379 410 l 379 382 l 42 382 l 42 410 q 133 431 113 410 q 149 493 149 446 l 149 800 q 143 841 149 825 q 114 857 138 857 q 74 849 99 857 q 39 836 50 840 l 39 865 l 267 956 l 282 956 l 282 488 q 299 426 282 442 q 379 410 317 410 z "},"½":{"ha":1042,"x_min":-10,"x_max":1076,"o":"m 796 956 l 874 956 l 264 -17 l 183 -17 l 796 956 m 331 410 l 331 382 l -7 382 l -7 410 q 85 431 64 410 q 100 493 100 446 l 100 800 q 94 841 100 825 q 65 857 89 857 q 26 849 50 857 q -10 836 1 840 l -10 865 l 218 956 l 233 956 l 233 488 q 251 426 233 442 q 331 410 268 410 m 1076 176 l 1035 0 l 660 0 l 660 19 q 790 153 750 108 q 884 273 853 221 q 915 372 915 325 q 885 449 915 418 q 808 479 854 479 q 748 460 774 479 q 706 404 722 440 l 672 404 q 729 506 696 468 q 871 574 788 574 q 975 544 931 574 q 1038 418 1038 503 q 1025 354 1038 383 q 935 239 1001 299 l 806 118 l 806 111 l 925 111 q 1015 122 994 111 q 1054 176 1035 132 l 1076 176 z "},"¾":{"ha":1042,"x_min":32,"x_max":1018,"o":"m 851 956 l 929 956 l 319 -17 l 239 -17 l 851 956 m 78 819 l 50 829 q 121 911 74 876 q 253 956 182 956 q 363 928 321 956 q 404 844 404 900 q 382 775 404 801 q 335 740 368 758 l 335 735 q 412 678 383 718 q 440 590 440 639 q 364 436 440 500 q 168 372 288 372 q 96 382 128 372 q 32 449 32 401 q 48 483 32 468 q 88 504 64 497 q 156 479 124 504 q 246 422 229 422 q 307 442 283 422 q 336 513 336 465 q 272 629 336 585 q 156 681 236 654 l 156 694 q 229 725 206 708 q 272 804 272 754 q 249 866 272 843 q 176 889 226 889 q 113 863 142 889 q 78 819 97 849 m 961 213 l 1018 213 l 1018 121 l 961 121 l 961 0 l 831 0 l 831 121 l 607 121 l 607 214 q 746 400 657 290 q 889 574 790 454 l 961 574 l 961 213 m 832 213 l 832 451 l 644 215 l 832 213 z "},"¿":{"ha":694,"x_min":76,"x_max":615,"o":"m 343 357 l 385 357 l 388 296 q 335 143 388 240 q 283 -47 283 46 q 301 -160 283 -117 q 403 -229 331 -229 q 462 -215 439 -229 q 485 -174 485 -200 q 459 -127 485 -156 q 433 -62 433 -99 q 465 8 433 -15 q 518 26 489 26 q 593 -8 567 26 q 615 -81 615 -37 q 567 -201 615 -149 q 346 -279 496 -279 q 196 -244 265 -279 q 76 -43 76 -185 q 114 74 76 19 q 207 158 147 121 q 271 199 258 190 q 329 257 315 229 q 343 357 343 285 m 481 579 q 447 497 481 532 q 363 461 413 461 q 281 496 315 461 q 246 579 246 531 q 279 663 246 629 q 363 696 313 696 q 447 662 413 696 q 481 579 481 628 z "},"À":{"ha":1003,"x_min":13,"x_max":957,"o":"m 957 35 l 957 0 l 507 0 l 507 35 q 595 45 572 35 q 618 89 618 56 q 594 178 618 115 q 554 274 585 204 l 242 274 q 196 151 211 194 q 181 94 181 108 q 219 44 181 58 q 294 35 246 35 l 294 0 l 13 0 l 13 35 q 93 81 65 43 q 149 197 113 107 l 457 958 l 496 958 l 806 228 q 879 76 856 108 q 957 35 910 35 m 263 328 l 533 328 l 393 665 l 263 328 m 603 1025 l 525 1025 l 328 1147 q 286 1181 300 1164 q 272 1221 272 1197 q 293 1265 272 1249 q 340 1282 314 1282 q 380 1271 361 1282 q 413 1243 399 1260 l 603 1025 z "},"Á":{"ha":1003,"x_min":13,"x_max":957,"o":"m 957 35 l 957 0 l 507 0 l 507 35 q 595 45 572 35 q 618 89 618 56 q 594 178 618 115 q 554 274 585 204 l 242 274 q 196 151 211 194 q 181 94 181 108 q 219 44 181 58 q 294 35 246 35 l 294 0 l 13 0 l 13 35 q 93 81 65 43 q 149 197 113 107 l 457 958 l 496 958 l 806 228 q 879 76 856 108 q 957 35 910 35 m 263 328 l 533 328 l 393 665 l 263 328 m 656 1147 l 458 1025 l 381 1025 l 571 1243 q 609 1274 592 1267 q 643 1282 626 1282 q 686 1271 669 1282 q 711 1221 711 1254 q 698 1180 711 1194 q 656 1147 685 1165 z "},"Â":{"ha":1003,"x_min":13,"x_max":957,"o":"m 957 35 l 957 0 l 507 0 l 507 35 q 595 45 572 35 q 618 89 618 56 q 594 178 618 115 q 554 274 585 204 l 242 274 q 196 151 211 194 q 181 94 181 108 q 219 44 181 58 q 294 35 246 35 l 294 0 l 13 0 l 13 35 q 93 81 65 43 q 149 197 113 107 l 457 958 l 496 958 l 806 228 q 879 76 856 108 q 957 35 910 35 m 263 328 l 533 328 l 393 665 l 263 328 m 647 1025 l 492 1161 l 336 1025 l 258 1025 l 428 1269 l 556 1269 l 726 1025 l 647 1025 z "},"Ã":{"ha":1003,"x_min":13,"x_max":957,"o":"m 957 35 l 957 0 l 507 0 l 507 35 q 595 45 572 35 q 618 89 618 56 q 594 178 618 115 q 554 274 585 204 l 242 274 q 196 151 211 194 q 181 94 181 108 q 219 44 181 58 q 294 35 246 35 l 294 0 l 13 0 l 13 35 q 93 81 65 43 q 149 197 113 107 l 457 958 l 496 958 l 806 228 q 879 76 856 108 q 957 35 910 35 m 263 328 l 533 328 l 393 665 l 263 328 m 297 1054 l 239 1054 q 297 1186 257 1144 q 403 1228 338 1228 q 475 1213 433 1228 q 501 1201 497 1203 l 557 1176 q 591 1163 581 1165 q 613 1160 601 1160 q 665 1185 646 1160 q 686 1228 675 1199 l 746 1228 q 704 1122 728 1158 q 578 1051 657 1051 q 535 1057 558 1051 q 494 1071 513 1063 l 454 1089 q 392 1115 404 1111 q 365 1119 381 1119 q 316 1098 335 1119 q 297 1054 297 1076 z "},"Ä":{"ha":1003,"x_min":13,"x_max":957,"o":"m 957 35 l 957 0 l 507 0 l 507 35 q 595 45 572 35 q 618 89 618 56 q 594 178 618 115 q 554 274 585 204 l 242 274 q 196 151 211 194 q 181 94 181 108 q 219 44 181 58 q 294 35 246 35 l 294 0 l 13 0 l 13 35 q 93 81 65 43 q 149 197 113 107 l 457 958 l 496 958 l 806 228 q 879 76 856 108 q 957 35 910 35 m 263 328 l 533 328 l 393 665 l 263 328 m 258 1128 q 281 1189 258 1160 q 346 1218 304 1218 q 409 1191 383 1218 q 435 1126 435 1164 q 410 1064 435 1090 q 346 1038 385 1038 q 282 1067 306 1038 q 258 1128 258 1097 m 550 1128 q 573 1189 550 1160 q 636 1218 596 1218 q 700 1192 674 1218 q 726 1126 726 1165 q 701 1063 726 1089 q 636 1038 675 1038 q 573 1067 596 1038 q 550 1128 550 1096 z "},"Å":{"ha":1003,"x_min":13,"x_max":957,"o":"m 957 35 l 957 0 l 507 0 l 507 35 q 595 45 572 35 q 618 89 618 56 q 594 178 618 115 q 554 274 585 204 l 242 274 q 196 151 211 194 q 181 94 181 108 q 219 44 181 58 q 294 35 246 35 l 294 0 l 13 0 l 13 35 q 93 81 65 43 q 149 197 113 107 l 457 958 l 496 958 l 806 228 q 879 76 856 108 q 957 35 910 35 m 263 328 l 533 328 l 393 665 l 263 328 m 333 1150 q 376 1256 333 1213 q 482 1299 419 1299 q 586 1256 543 1299 q 629 1150 629 1213 q 586 1046 629 1089 q 482 1003 543 1003 q 377 1045 421 1003 q 333 1150 333 1088 m 563 1150 q 538 1208 563 1183 q 479 1232 514 1232 q 422 1205 443 1232 q 400 1150 400 1178 q 418 1099 400 1121 q 479 1069 442 1069 q 538 1092 514 1069 q 563 1150 563 1115 z "},"Æ":{"ha":1389,"x_min":6,"x_max":1321,"o":"m 478 0 l 478 35 q 576 61 553 35 q 600 165 600 88 l 600 421 l 336 421 l 197 160 q 181 124 186 136 q 176 94 176 111 q 204 51 176 64 q 268 38 222 43 l 292 35 l 292 0 l 6 0 l 6 35 q 67 65 46 43 q 158 213 94 96 l 454 753 q 486 811 469 781 q 503 854 503 842 q 472 897 503 885 q 382 908 440 908 l 382 939 l 1263 939 l 1263 660 l 1228 660 q 1164 822 1203 781 q 936 890 1101 890 q 836 879 858 890 q 822 849 822 872 l 822 504 q 976 546 944 515 q 1038 711 1008 576 l 1069 711 l 1069 242 l 1038 242 q 990 403 1017 367 q 822 460 947 460 l 822 122 q 841 65 822 82 q 918 47 860 47 q 1078 67 1024 47 q 1185 133 1133 86 q 1251 220 1214 161 q 1289 293 1289 279 l 1321 293 l 1264 0 l 478 0 m 367 476 l 600 476 l 600 879 l 590 879 l 367 476 z "},"Ç":{"ha":1003,"x_min":68,"x_max":954,"o":"m 913 211 l 954 176 q 790 32 867 76 q 567 -26 692 -26 q 196 119 333 -26 q 68 461 68 256 q 205 817 68 675 q 560 960 342 960 q 690 938 622 960 q 828 892 758 915 q 868 910 853 892 q 892 956 878 922 l 929 956 l 929 631 l 894 631 q 774 817 851 738 q 571 914 678 914 q 367 779 431 914 q 314 467 314 667 q 326 302 314 381 q 374 161 338 224 q 454 79 403 110 q 585 40 518 40 q 746 76 672 40 q 913 211 828 117 m 450 -133 l 510 0 l 568 0 l 529 -89 q 551 -83 546 -83 q 572 -82 556 -82 q 663 -106 629 -82 q 697 -179 697 -129 q 624 -283 697 -253 q 510 -303 578 -303 q 447 -297 479 -303 q 383 -278 414 -290 l 406 -226 q 443 -240 424 -233 q 488 -246 463 -246 q 548 -232 528 -246 q 568 -189 568 -218 q 550 -151 568 -164 q 504 -139 532 -139 q 481 -141 492 -139 q 465 -144 471 -143 l 450 -133 z "},"È":{"ha":926,"x_min":22,"x_max":890,"o":"m 22 904 l 22 939 l 824 939 l 824 660 l 789 660 q 689 850 767 800 q 471 892 624 892 q 390 881 410 892 q 369 826 369 869 l 369 504 q 524 543 476 504 q 594 711 579 589 l 631 711 l 631 242 l 594 242 q 531 412 582 367 q 369 457 479 457 l 369 121 q 394 59 369 75 q 486 43 418 43 q 688 86 610 43 q 851 289 790 143 l 890 289 l 835 0 l 22 0 l 22 35 q 113 54 93 42 q 144 133 144 74 l 144 806 q 108 889 144 868 q 22 904 82 904 m 583 1025 l 506 1025 l 308 1147 q 267 1181 281 1164 q 253 1221 253 1197 q 274 1265 253 1249 q 321 1282 294 1282 q 360 1271 342 1282 q 393 1243 379 1260 l 583 1025 z "},"É":{"ha":926,"x_min":22,"x_max":890,"o":"m 22 904 l 22 939 l 824 939 l 824 660 l 789 660 q 689 850 767 800 q 471 892 624 892 q 390 881 410 892 q 369 826 369 869 l 369 504 q 524 543 476 504 q 594 711 579 589 l 631 711 l 631 242 l 594 242 q 531 412 582 367 q 369 457 479 457 l 369 121 q 394 59 369 75 q 486 43 418 43 q 688 86 610 43 q 851 289 790 143 l 890 289 l 835 0 l 22 0 l 22 35 q 113 54 93 42 q 144 133 144 74 l 144 806 q 108 889 144 868 q 22 904 82 904 m 636 1147 l 439 1025 l 361 1025 l 551 1243 q 590 1274 572 1267 q 624 1282 607 1282 q 667 1271 650 1282 q 692 1221 692 1254 q 678 1180 692 1194 q 636 1147 665 1165 z "},"Ê":{"ha":926,"x_min":22,"x_max":890,"o":"m 22 904 l 22 939 l 824 939 l 824 660 l 789 660 q 689 850 767 800 q 471 892 624 892 q 390 881 410 892 q 369 826 369 869 l 369 504 q 524 543 476 504 q 594 711 579 589 l 631 711 l 631 242 l 594 242 q 531 412 582 367 q 369 457 479 457 l 369 121 q 394 59 369 75 q 486 43 418 43 q 688 86 610 43 q 851 289 790 143 l 890 289 l 835 0 l 22 0 l 22 35 q 113 54 93 42 q 144 133 144 74 l 144 806 q 108 889 144 868 q 22 904 82 904 m 628 1025 l 472 1161 l 317 1025 l 239 1025 l 408 1269 l 536 1269 l 707 1025 l 628 1025 z "},"Ë":{"ha":926,"x_min":22,"x_max":890,"o":"m 22 904 l 22 939 l 824 939 l 824 660 l 789 660 q 689 850 767 800 q 471 892 624 892 q 390 881 410 892 q 369 826 369 869 l 369 504 q 524 543 476 504 q 594 711 579 589 l 631 711 l 631 242 l 594 242 q 531 412 582 367 q 369 457 479 457 l 369 121 q 394 59 369 75 q 486 43 418 43 q 688 86 610 43 q 851 289 790 143 l 890 289 l 835 0 l 22 0 l 22 35 q 113 54 93 42 q 144 133 144 74 l 144 806 q 108 889 144 868 q 22 904 82 904 m 239 1128 q 262 1189 239 1160 q 326 1218 285 1218 q 390 1191 364 1218 q 415 1126 415 1164 q 390 1064 415 1090 q 326 1038 365 1038 q 263 1067 286 1038 q 239 1128 239 1097 m 531 1128 q 553 1189 531 1160 q 617 1218 576 1218 q 681 1192 654 1218 q 707 1126 707 1165 q 681 1063 707 1089 q 617 1038 656 1038 q 553 1067 576 1038 q 531 1128 531 1096 z "},"Ì":{"ha":540,"x_min":28,"x_max":514,"o":"m 514 35 l 514 0 l 28 0 l 28 35 q 136 64 115 43 q 157 133 157 85 l 157 806 q 117 889 157 867 q 28 904 89 904 l 28 939 l 514 939 l 514 904 q 424 890 451 904 q 382 806 382 869 l 382 133 q 419 51 382 74 q 514 35 449 35 m 381 1025 l 303 1025 l 106 1147 q 64 1181 78 1164 q 50 1221 50 1197 q 71 1265 50 1249 q 118 1282 92 1282 q 158 1271 139 1282 q 190 1243 176 1260 l 381 1025 z "},"Í":{"ha":540,"x_min":28,"x_max":514,"o":"m 514 35 l 514 0 l 28 0 l 28 35 q 136 64 115 43 q 157 133 157 85 l 157 806 q 117 889 157 867 q 28 904 89 904 l 28 939 l 514 939 l 514 904 q 424 890 451 904 q 382 806 382 869 l 382 133 q 419 51 382 74 q 514 35 449 35 m 433 1147 l 236 1025 l 158 1025 l 349 1243 q 387 1274 369 1267 q 421 1282 404 1282 q 464 1271 447 1282 q 489 1221 489 1254 q 476 1180 489 1194 q 433 1147 463 1165 z "},"Î":{"ha":540,"x_min":28,"x_max":514,"o":"m 514 35 l 514 0 l 28 0 l 28 35 q 136 64 115 43 q 157 133 157 85 l 157 806 q 117 889 157 867 q 28 904 89 904 l 28 939 l 514 939 l 514 904 q 424 890 451 904 q 382 806 382 869 l 382 133 q 419 51 382 74 q 514 35 449 35 m 425 1025 l 269 1161 l 114 1025 l 36 1025 l 206 1269 l 333 1269 l 504 1025 l 425 1025 z "},"Ï":{"ha":540,"x_min":28,"x_max":514,"o":"m 514 35 l 514 0 l 28 0 l 28 35 q 136 64 115 43 q 157 133 157 85 l 157 806 q 117 889 157 867 q 28 904 89 904 l 28 939 l 514 939 l 514 904 q 424 890 451 904 q 382 806 382 869 l 382 133 q 419 51 382 74 q 514 35 449 35 m 36 1128 q 59 1189 36 1160 q 124 1218 82 1218 q 187 1191 161 1218 q 213 1126 213 1164 q 188 1064 213 1090 q 124 1038 163 1038 q 60 1067 83 1038 q 36 1128 36 1097 m 328 1128 q 351 1189 328 1160 q 414 1218 374 1218 q 478 1192 451 1218 q 504 1126 504 1165 q 478 1063 504 1089 q 414 1038 453 1038 q 351 1067 374 1038 q 328 1128 328 1096 z "},"Ð":{"ha":1003,"x_min":8,"x_max":958,"o":"m 518 518 l 518 453 l 360 453 l 360 129 q 375 67 360 85 q 439 49 390 49 q 636 133 569 49 q 717 469 717 236 q 671 728 717 618 q 446 892 601 892 q 369 871 388 892 q 360 826 360 860 l 360 518 l 518 518 m 8 453 l 8 518 l 135 518 l 135 811 q 97 888 135 867 q 19 904 78 899 l 19 939 l 443 939 q 846 792 710 939 q 958 483 958 669 q 840 146 958 275 q 458 0 707 0 l 19 0 l 19 35 q 108 60 81 35 q 135 126 135 85 l 135 453 l 8 453 z "},"Ñ":{"ha":1003,"x_min":22,"x_max":974,"o":"m 22 0 l 22 35 q 114 58 93 43 q 144 146 144 81 l 144 804 q 64 890 90 871 q 26 904 44 904 l 26 939 l 319 939 l 801 346 l 804 767 q 782 867 804 838 q 675 904 754 904 l 675 939 l 974 939 l 974 904 q 884 872 903 896 q 865 793 865 849 l 865 -25 l 826 -25 l 208 728 l 206 172 q 232 70 206 97 q 338 35 258 43 l 338 0 l 22 0 m 307 1054 l 249 1054 q 307 1186 267 1144 q 413 1228 347 1228 q 485 1213 443 1228 q 511 1201 507 1203 l 567 1176 q 601 1163 590 1165 q 622 1160 611 1160 q 675 1185 656 1160 q 696 1228 685 1199 l 756 1228 q 714 1122 738 1158 q 588 1051 667 1051 q 545 1057 568 1051 q 504 1071 522 1063 l 464 1089 q 402 1115 414 1111 q 375 1119 390 1119 q 326 1098 344 1119 q 307 1054 307 1076 z "},"Ò":{"ha":1081,"x_min":49,"x_max":1032,"o":"m 540 914 q 344 767 408 914 q 294 467 294 651 q 357 129 294 239 q 540 19 419 19 q 751 197 693 19 q 786 467 786 303 q 736 767 786 650 q 540 914 674 914 m 540 960 q 886 828 747 960 q 1032 467 1032 689 q 893 111 1032 249 q 540 -26 754 -26 q 187 110 325 -26 q 49 467 49 247 q 190 824 49 689 q 540 960 332 960 m 651 1025 l 574 1025 l 376 1147 q 335 1181 349 1164 q 321 1221 321 1197 q 342 1265 321 1249 q 389 1282 363 1282 q 428 1271 410 1282 q 461 1243 447 1260 l 651 1025 z "},"Ó":{"ha":1081,"x_min":49,"x_max":1032,"o":"m 540 914 q 344 767 408 914 q 294 467 294 651 q 357 129 294 239 q 540 19 419 19 q 751 197 693 19 q 786 467 786 303 q 736 767 786 650 q 540 914 674 914 m 540 960 q 886 828 747 960 q 1032 467 1032 689 q 893 111 1032 249 q 540 -26 754 -26 q 187 110 325 -26 q 49 467 49 247 q 190 824 49 689 q 540 960 332 960 m 704 1147 l 507 1025 l 429 1025 l 619 1243 q 658 1274 640 1267 q 692 1282 675 1282 q 735 1271 718 1282 q 760 1221 760 1254 q 747 1180 760 1194 q 704 1147 733 1165 z "},"Ô":{"ha":1081,"x_min":49,"x_max":1032,"o":"m 540 914 q 344 767 408 914 q 294 467 294 651 q 357 129 294 239 q 540 19 419 19 q 751 197 693 19 q 786 467 786 303 q 736 767 786 650 q 540 914 674 914 m 540 960 q 886 828 747 960 q 1032 467 1032 689 q 893 111 1032 249 q 540 -26 754 -26 q 187 110 325 -26 q 49 467 49 247 q 190 824 49 689 q 540 960 332 960 m 696 1025 l 540 1161 l 385 1025 l 307 1025 l 476 1269 l 604 1269 l 775 1025 l 696 1025 z "},"Õ":{"ha":1081,"x_min":49,"x_max":1032,"o":"m 540 914 q 344 767 408 914 q 294 467 294 651 q 357 129 294 239 q 540 19 419 19 q 751 197 693 19 q 786 467 786 303 q 736 767 786 650 q 540 914 674 914 m 540 960 q 886 828 747 960 q 1032 467 1032 689 q 893 111 1032 249 q 540 -26 754 -26 q 187 110 325 -26 q 49 467 49 247 q 190 824 49 689 q 540 960 332 960 m 346 1054 l 288 1054 q 346 1186 306 1144 q 451 1228 386 1228 q 524 1213 482 1228 q 550 1201 546 1203 l 606 1176 q 640 1163 629 1165 q 661 1160 650 1160 q 714 1185 694 1160 q 735 1228 724 1199 l 794 1228 q 753 1122 776 1158 q 626 1051 706 1051 q 584 1057 607 1051 q 543 1071 561 1063 l 503 1089 q 441 1115 453 1111 q 414 1119 429 1119 q 365 1098 383 1119 q 346 1054 346 1076 z "},"Ö":{"ha":1081,"x_min":49,"x_max":1032,"o":"m 540 914 q 344 767 408 914 q 294 467 294 651 q 357 129 294 239 q 540 19 419 19 q 751 197 693 19 q 786 467 786 303 q 736 767 786 650 q 540 914 674 914 m 540 960 q 886 828 747 960 q 1032 467 1032 689 q 893 111 1032 249 q 540 -26 754 -26 q 187 110 325 -26 q 49 467 49 247 q 190 824 49 689 q 540 960 332 960 m 307 1128 q 330 1189 307 1160 q 394 1218 353 1218 q 458 1191 432 1218 q 483 1126 483 1164 q 458 1064 483 1090 q 394 1038 433 1038 q 331 1067 354 1038 q 307 1128 307 1097 m 599 1128 q 622 1189 599 1160 q 685 1218 644 1218 q 749 1192 722 1218 q 775 1126 775 1165 q 749 1063 775 1089 q 685 1038 724 1038 q 622 1067 644 1038 q 599 1128 599 1096 z "},"×":{"ha":792,"x_min":67,"x_max":725,"o":"m 310 351 l 67 594 l 153 681 l 396 436 l 639 681 l 725 594 l 481 351 l 725 108 l 639 22 l 396 267 l 153 22 l 67 108 l 310 351 z "},"Ø":{"ha":1081,"x_min":49,"x_max":1032,"o":"m 951 1024 l 843 864 q 982 697 932 797 q 1032 467 1032 596 q 893 111 1032 249 q 540 -26 754 -26 q 281 42 393 -26 l 182 -103 l 113 -103 l 232 72 q 97 240 144 139 q 49 467 49 342 q 190 824 49 689 q 540 960 332 960 q 794 894 683 960 l 882 1024 l 951 1024 m 325 210 l 722 790 q 648 882 692 850 q 540 914 604 914 q 344 767 408 914 q 294 467 294 651 q 301 319 294 374 q 325 210 308 265 m 750 728 l 351 144 q 422 56 379 86 q 540 19 472 19 q 751 197 693 19 q 786 467 786 303 q 778 606 786 544 q 750 728 771 667 z "},"Ù":{"ha":1003,"x_min":22,"x_max":974,"o":"m 974 939 l 974 904 q 892 876 911 894 q 865 786 865 851 l 865 343 q 849 203 865 271 q 788 75 828 118 q 657 -4 739 22 q 514 -26 589 -26 q 385 -12 446 -26 q 232 61 292 8 q 161 150 181 107 q 136 313 136 207 l 136 776 q 108 881 136 856 q 22 904 90 897 l 22 939 l 492 939 l 492 904 q 390 886 414 904 q 357 776 357 861 l 357 313 q 406 106 357 169 q 557 42 456 42 q 772 158 715 42 q 804 343 804 224 l 804 767 q 782 867 804 839 q 668 904 753 904 l 668 939 l 974 939 m 650 1025 l 572 1025 l 375 1147 q 333 1181 347 1164 q 319 1221 319 1197 q 340 1265 319 1249 q 388 1282 361 1282 q 427 1271 408 1282 q 460 1243 446 1260 l 650 1025 z "},"Ú":{"ha":1003,"x_min":22,"x_max":974,"o":"m 974 939 l 974 904 q 892 876 911 894 q 865 786 865 851 l 865 343 q 849 203 865 271 q 788 75 828 118 q 657 -4 739 22 q 514 -26 589 -26 q 385 -12 446 -26 q 232 61 292 8 q 161 150 181 107 q 136 313 136 207 l 136 776 q 108 881 136 856 q 22 904 90 897 l 22 939 l 492 939 l 492 904 q 390 886 414 904 q 357 776 357 861 l 357 313 q 406 106 357 169 q 557 42 456 42 q 772 158 715 42 q 804 343 804 224 l 804 767 q 782 867 804 839 q 668 904 753 904 l 668 939 l 974 939 m 703 1147 l 506 1025 l 428 1025 l 618 1243 q 656 1274 639 1267 q 690 1282 674 1282 q 733 1271 717 1282 q 758 1221 758 1254 q 745 1180 758 1194 q 703 1147 732 1165 z "},"Û":{"ha":1003,"x_min":22,"x_max":974,"o":"m 974 939 l 974 904 q 892 876 911 894 q 865 786 865 851 l 865 343 q 849 203 865 271 q 788 75 828 118 q 657 -4 739 22 q 514 -26 589 -26 q 385 -12 446 -26 q 232 61 292 8 q 161 150 181 107 q 136 313 136 207 l 136 776 q 108 881 136 856 q 22 904 90 897 l 22 939 l 492 939 l 492 904 q 390 886 414 904 q 357 776 357 861 l 357 313 q 406 106 357 169 q 557 42 456 42 q 772 158 715 42 q 804 343 804 224 l 804 767 q 782 867 804 839 q 668 904 753 904 l 668 939 l 974 939 m 694 1025 l 539 1161 l 383 1025 l 306 1025 l 475 1269 l 603 1269 l 774 1025 l 694 1025 z "},"Ü":{"ha":1003,"x_min":22,"x_max":974,"o":"m 974 939 l 974 904 q 892 876 911 894 q 865 786 865 851 l 865 343 q 849 203 865 271 q 788 75 828 118 q 657 -4 739 22 q 514 -26 589 -26 q 385 -12 446 -26 q 232 61 292 8 q 161 150 181 107 q 136 313 136 207 l 136 776 q 108 881 136 856 q 22 904 90 897 l 22 939 l 492 939 l 492 904 q 390 886 414 904 q 357 776 357 861 l 357 313 q 406 106 357 169 q 557 42 456 42 q 772 158 715 42 q 804 343 804 224 l 804 767 q 782 867 804 839 q 668 904 753 904 l 668 939 l 974 939 m 306 1128 q 328 1189 306 1160 q 393 1218 351 1218 q 456 1191 431 1218 q 482 1126 482 1164 q 457 1064 482 1090 q 393 1038 432 1038 q 329 1067 353 1038 q 306 1128 306 1097 m 597 1128 q 620 1189 597 1160 q 683 1218 643 1218 q 747 1192 721 1218 q 774 1126 774 1165 q 748 1063 774 1089 q 683 1038 722 1038 q 620 1067 643 1038 q 597 1128 597 1096 z "},"Ý":{"ha":1003,"x_min":21,"x_max":971,"o":"m 971 939 l 971 904 q 910 886 929 897 q 876 850 892 875 l 611 418 l 611 163 q 638 60 611 82 q 739 35 658 43 l 739 0 l 257 0 l 257 35 q 357 58 338 43 q 386 163 386 82 l 386 367 l 132 828 q 114 857 119 850 q 21 904 75 904 l 21 939 l 486 939 l 486 904 q 394 896 414 904 q 374 857 374 888 q 388 817 374 844 q 407 779 401 790 l 574 457 l 728 714 q 758 769 744 739 q 782 843 782 819 q 751 892 782 879 q 665 904 721 904 l 665 939 l 971 939 m 686 1154 l 489 1032 l 411 1032 l 601 1250 q 640 1281 622 1274 q 674 1289 657 1289 q 717 1278 700 1289 q 742 1228 742 1261 q 728 1187 742 1201 q 686 1154 715 1172 z "},"Þ":{"ha":849,"x_min":22,"x_max":833,"o":"m 22 0 l 22 35 q 84 46 74 43 q 103 54 94 49 q 132 95 125 71 q 139 163 139 119 l 139 776 q 108 881 139 856 q 22 904 88 899 l 22 939 l 486 939 l 486 904 q 389 878 406 893 q 364 775 364 856 l 364 758 l 456 758 q 764 675 672 758 q 833 503 833 613 q 813 404 833 450 q 707 293 781 335 q 577 249 646 258 q 364 240 508 240 l 364 163 q 389 61 364 83 q 486 35 407 44 l 486 0 l 22 0 m 364 661 l 364 289 q 542 329 494 289 q 594 499 594 374 q 556 663 594 615 q 431 710 518 710 q 364 661 364 710 z "},"ß":{"ha":772,"x_min":26,"x_max":718,"o":"m 26 0 l 26 33 q 83 56 68 40 q 97 121 97 71 l 97 704 q 177 887 97 814 q 378 960 257 960 q 601 883 524 960 q 661 750 661 824 q 601 615 661 669 q 449 547 547 565 q 654 443 590 508 q 718 264 718 378 q 631 56 718 138 q 457 -17 553 -17 q 416 -12 433 -17 q 367 4 399 -8 l 386 51 q 413 35 406 39 q 432 32 421 32 q 497 81 478 32 q 515 271 515 129 q 479 475 515 422 q 374 518 450 518 l 374 565 q 424 572 408 565 q 451 598 440 578 q 467 654 463 618 q 471 750 471 690 q 445 883 471 846 q 372 921 419 921 q 303 881 322 921 q 290 814 290 856 l 290 0 l 26 0 z "},"à":{"ha":694,"x_min":35,"x_max":678,"o":"m 657 89 l 678 60 q 608 1 646 22 q 525 -19 571 -19 q 433 14 461 -19 q 408 78 418 32 q 276 -4 350 19 q 188 -19 229 -19 q 86 15 129 -19 q 35 129 35 57 q 147 290 35 226 q 408 389 219 332 l 408 490 q 386 578 408 550 q 286 613 358 613 q 228 597 251 613 q 204 563 204 581 q 225 525 204 551 q 246 468 246 499 q 215 408 246 432 q 153 390 192 390 q 85 414 108 390 q 61 485 61 438 q 126 604 61 556 q 321 657 197 657 q 522 609 444 657 q 599 467 599 561 l 599 104 q 603 80 599 90 q 629 69 608 69 q 643 75 638 69 l 657 89 m 407 139 l 407 340 q 284 278 331 324 q 238 172 238 233 q 256 108 238 136 q 308 79 274 79 q 368 100 340 79 q 407 139 382 110 m 449 733 l 371 733 l 174 856 q 132 889 146 872 q 118 929 118 906 q 139 974 118 957 q 186 990 160 990 q 226 979 207 990 q 258 951 244 968 l 449 733 z "},"á":{"ha":694,"x_min":35,"x_max":678,"o":"m 657 89 l 678 60 q 608 1 646 22 q 525 -19 571 -19 q 433 14 461 -19 q 408 78 418 32 q 276 -4 350 19 q 188 -19 229 -19 q 86 15 129 -19 q 35 129 35 57 q 147 290 35 226 q 408 389 219 332 l 408 490 q 386 578 408 550 q 286 613 358 613 q 228 597 251 613 q 204 563 204 581 q 225 525 204 551 q 246 468 246 499 q 215 408 246 432 q 153 390 192 390 q 85 414 108 390 q 61 485 61 438 q 126 604 61 556 q 321 657 197 657 q 522 609 444 657 q 599 467 599 561 l 599 104 q 603 80 599 90 q 629 69 608 69 q 643 75 638 69 l 657 89 m 407 139 l 407 340 q 284 278 331 324 q 238 172 238 233 q 256 108 238 136 q 308 79 274 79 q 368 100 340 79 q 407 139 382 110 m 501 856 l 304 733 l 226 733 l 417 951 q 455 983 438 975 q 489 990 472 990 q 532 979 515 990 q 557 929 557 963 q 544 888 557 903 q 501 856 531 874 z "},"â":{"ha":694,"x_min":35,"x_max":678,"o":"m 657 89 l 678 60 q 608 1 646 22 q 525 -19 571 -19 q 433 14 461 -19 q 408 78 418 32 q 276 -4 350 19 q 188 -19 229 -19 q 86 15 129 -19 q 35 129 35 57 q 147 290 35 226 q 408 389 219 332 l 408 490 q 386 578 408 550 q 286 613 358 613 q 228 597 251 613 q 204 563 204 581 q 225 525 204 551 q 246 468 246 499 q 215 408 246 432 q 153 390 192 390 q 85 414 108 390 q 61 485 61 438 q 126 604 61 556 q 321 657 197 657 q 522 609 444 657 q 599 467 599 561 l 599 104 q 603 80 599 90 q 629 69 608 69 q 643 75 638 69 l 657 89 m 407 139 l 407 340 q 284 278 331 324 q 238 172 238 233 q 256 108 238 136 q 308 79 274 79 q 368 100 340 79 q 407 139 382 110 m 493 733 l 338 869 l 182 733 l 104 733 l 274 978 l 401 978 l 572 733 l 493 733 z "},"ã":{"ha":694,"x_min":35,"x_max":678,"o":"m 657 89 l 678 60 q 608 1 646 22 q 525 -19 571 -19 q 433 14 461 -19 q 408 78 418 32 q 276 -4 350 19 q 188 -19 229 -19 q 86 15 129 -19 q 35 129 35 57 q 147 290 35 226 q 408 389 219 332 l 408 490 q 386 578 408 550 q 286 613 358 613 q 228 597 251 613 q 204 563 204 581 q 225 525 204 551 q 246 468 246 499 q 215 408 246 432 q 153 390 192 390 q 85 414 108 390 q 61 485 61 438 q 126 604 61 556 q 321 657 197 657 q 522 609 444 657 q 599 467 599 561 l 599 104 q 603 80 599 90 q 629 69 608 69 q 643 75 638 69 l 657 89 m 407 139 l 407 340 q 284 278 331 324 q 238 172 238 233 q 256 108 238 136 q 308 79 274 79 q 368 100 340 79 q 407 139 382 110 m 143 763 l 85 763 q 143 894 103 853 q 249 936 183 936 q 321 921 279 936 q 347 910 343 911 l 403 885 q 437 871 426 874 q 458 868 447 868 q 511 893 492 868 q 532 936 521 907 l 592 936 q 550 831 574 867 q 424 760 503 760 q 381 765 404 760 q 340 779 358 771 l 300 797 q 238 824 250 819 q 211 828 226 828 q 162 806 181 828 q 143 763 143 785 z "},"ä":{"ha":694,"x_min":35,"x_max":678,"o":"m 657 89 l 678 60 q 608 1 646 22 q 525 -19 571 -19 q 433 14 461 -19 q 408 78 418 32 q 276 -4 350 19 q 188 -19 229 -19 q 86 15 129 -19 q 35 129 35 57 q 147 290 35 226 q 408 389 219 332 l 408 490 q 386 578 408 550 q 286 613 358 613 q 228 597 251 613 q 204 563 204 581 q 225 525 204 551 q 246 468 246 499 q 215 408 246 432 q 153 390 192 390 q 85 414 108 390 q 61 485 61 438 q 126 604 61 556 q 321 657 197 657 q 522 609 444 657 q 599 467 599 561 l 599 104 q 603 80 599 90 q 629 69 608 69 q 643 75 638 69 l 657 89 m 407 139 l 407 340 q 284 278 331 324 q 238 172 238 233 q 256 108 238 136 q 308 79 274 79 q 368 100 340 79 q 407 139 382 110 m 104 836 q 127 897 104 868 q 192 926 150 926 q 255 899 229 926 q 281 835 281 872 q 256 772 281 799 q 192 746 231 746 q 128 776 151 746 q 104 836 104 806 m 396 836 q 419 897 396 868 q 482 926 442 926 q 546 900 519 926 q 572 835 572 874 q 547 772 572 797 q 482 746 521 746 q 419 775 442 746 q 396 836 396 804 z "},"å":{"ha":694,"x_min":35,"x_max":678,"o":"m 657 89 l 678 60 q 608 1 646 22 q 525 -19 571 -19 q 433 14 461 -19 q 408 78 418 32 q 276 -4 350 19 q 188 -19 229 -19 q 86 15 129 -19 q 35 129 35 57 q 147 290 35 226 q 408 389 219 332 l 408 490 q 386 578 408 550 q 286 613 358 613 q 228 597 251 613 q 204 563 204 581 q 225 525 204 551 q 246 468 246 499 q 215 408 246 432 q 153 390 192 390 q 85 414 108 390 q 61 485 61 438 q 126 604 61 556 q 321 657 197 657 q 522 609 444 657 q 599 467 599 561 l 599 104 q 603 80 599 90 q 629 69 608 69 q 643 75 638 69 l 657 89 m 407 139 l 407 340 q 284 278 331 324 q 238 172 238 233 q 256 108 238 136 q 308 79 274 79 q 368 100 340 79 q 407 139 382 110 m 190 879 q 233 985 190 942 q 339 1028 276 1028 q 443 985 400 1028 q 486 879 486 942 q 443 775 486 818 q 339 732 400 732 q 234 774 278 732 q 190 879 190 817 m 419 879 q 395 937 419 913 q 336 961 371 961 q 278 934 300 961 q 257 879 257 907 q 275 828 257 850 q 336 799 299 799 q 395 822 371 799 q 419 879 419 844 z "},"æ":{"ha":1003,"x_min":46,"x_max":963,"o":"m 933 178 l 963 157 q 838 28 908 68 q 679 -12 768 -12 q 579 1 615 -12 q 468 104 511 28 l 460 96 q 331 6 399 35 q 211 -19 272 -19 q 46 126 46 -19 q 84 239 46 196 q 207 318 122 282 q 411 389 257 339 l 411 500 q 397 571 411 547 q 300 613 372 613 q 239 600 265 613 q 213 565 213 588 q 233 528 213 550 q 253 475 253 507 q 158 394 253 394 q 99 415 124 394 q 69 483 69 440 q 140 606 69 554 q 313 657 210 657 q 456 633 404 657 q 519 586 486 619 q 589 636 551 619 q 699 657 635 657 q 869 592 801 657 q 956 344 956 510 l 603 344 l 603 313 q 621 175 603 221 q 757 85 657 85 q 872 118 824 85 q 933 178 901 138 m 411 113 l 411 344 q 300 289 335 318 q 246 168 246 243 q 258 104 246 128 q 319 68 276 68 q 364 75 344 68 q 411 113 383 82 m 603 396 l 788 396 l 788 442 q 769 576 788 538 q 697 615 750 615 q 615 539 636 615 q 603 396 603 493 z "},"ç":{"ha":617,"x_min":35,"x_max":597,"o":"m 572 151 l 597 126 q 480 19 547 57 q 332 -19 413 -19 q 118 74 201 -19 q 35 299 35 167 q 149 581 35 485 q 363 657 239 657 q 507 619 444 657 q 578 506 578 576 q 551 439 578 461 q 483 417 525 417 q 424 442 443 417 q 406 560 406 468 q 388 601 406 588 q 349 614 369 614 q 263 554 294 614 q 231 381 231 494 q 285 156 231 239 q 424 74 339 74 q 515 99 476 74 q 572 151 539 114 m 257 -133 l 317 0 l 375 0 l 336 -89 q 358 -83 353 -83 q 379 -82 363 -82 q 470 -106 436 -82 q 504 -179 504 -129 q 431 -283 504 -253 q 317 -303 385 -303 q 253 -297 286 -303 q 190 -278 221 -290 l 213 -226 q 250 -240 231 -233 q 294 -246 269 -246 q 355 -232 335 -246 q 375 -189 375 -218 q 357 -151 375 -164 q 311 -139 339 -139 q 288 -141 299 -139 q 272 -144 278 -143 l 257 -133 z "},"è":{"ha":617,"x_min":35,"x_max":592,"o":"m 228 392 l 414 392 q 412 481 414 446 q 401 547 410 517 q 379 593 393 578 q 326 614 360 614 q 258 575 281 614 q 228 392 228 522 m 558 174 l 592 154 q 466 19 529 58 q 317 -19 403 -19 q 124 61 201 -19 q 35 321 35 154 q 117 564 35 471 q 321 657 199 657 q 510 578 443 657 q 585 340 585 489 l 235 340 q 268 167 235 233 q 401 81 311 81 q 478 101 443 81 q 558 174 514 121 m 428 733 l 350 733 l 153 856 q 111 889 125 872 q 97 929 97 906 q 118 974 97 957 q 165 990 139 990 q 205 979 186 990 q 238 951 224 968 l 428 733 z "},"é":{"ha":617,"x_min":35,"x_max":592,"o":"m 228 392 l 414 392 q 412 481 414 446 q 401 547 410 517 q 379 593 393 578 q 326 614 360 614 q 258 575 281 614 q 228 392 228 522 m 558 174 l 592 154 q 466 19 529 58 q 317 -19 403 -19 q 124 61 201 -19 q 35 321 35 154 q 117 564 35 471 q 321 657 199 657 q 510 578 443 657 q 585 340 585 489 l 235 340 q 268 167 235 233 q 401 81 311 81 q 478 101 443 81 q 558 174 514 121 m 481 856 l 283 733 l 206 733 l 396 951 q 434 983 417 975 q 468 990 451 990 q 511 979 494 990 q 536 929 536 963 q 523 888 536 903 q 481 856 510 874 z "},"ê":{"ha":617,"x_min":35,"x_max":592,"o":"m 228 392 l 414 392 q 412 481 414 446 q 401 547 410 517 q 379 593 393 578 q 326 614 360 614 q 258 575 281 614 q 228 392 228 522 m 558 174 l 592 154 q 466 19 529 58 q 317 -19 403 -19 q 124 61 201 -19 q 35 321 35 154 q 117 564 35 471 q 321 657 199 657 q 510 578 443 657 q 585 340 585 489 l 235 340 q 268 167 235 233 q 401 81 311 81 q 478 101 443 81 q 558 174 514 121 m 472 733 l 317 869 l 161 733 l 83 733 l 253 978 l 381 978 l 551 733 l 472 733 z "},"ë":{"ha":617,"x_min":35,"x_max":592,"o":"m 228 392 l 414 392 q 412 481 414 446 q 401 547 410 517 q 379 593 393 578 q 326 614 360 614 q 258 575 281 614 q 228 392 228 522 m 558 174 l 592 154 q 466 19 529 58 q 317 -19 403 -19 q 124 61 201 -19 q 35 321 35 154 q 117 564 35 471 q 321 657 199 657 q 510 578 443 657 q 585 340 585 489 l 235 340 q 268 167 235 233 q 401 81 311 81 q 478 101 443 81 q 558 174 514 121 m 83 836 q 106 897 83 868 q 171 926 129 926 q 234 899 208 926 q 260 835 260 872 q 235 772 260 799 q 171 746 210 746 q 107 776 131 746 q 83 836 83 806 m 375 836 q 398 897 375 868 q 461 926 421 926 q 525 900 499 926 q 551 835 551 874 q 526 772 551 797 q 461 746 500 746 q 398 775 421 746 q 375 836 375 804 z "},"ì":{"ha":386,"x_min":-36,"x_max":354,"o":"m 354 33 l 354 0 l 22 0 l 22 33 q 78 54 67 44 q 96 117 96 71 l 96 525 q 81 584 96 569 q 22 607 67 599 l 22 640 l 289 640 l 289 113 q 301 56 289 75 q 354 33 314 38 m 294 733 l 217 733 l 19 856 q -22 889 -8 872 q -36 929 -36 906 q -15 974 -36 957 q 32 990 6 990 q 72 979 53 990 q 104 951 90 968 l 294 733 z "},"í":{"ha":386,"x_min":22,"x_max":403,"o":"m 354 33 l 354 0 l 22 0 l 22 33 q 78 54 67 44 q 96 117 96 71 l 96 525 q 81 584 96 569 q 22 607 67 599 l 22 640 l 289 640 l 289 113 q 301 56 289 75 q 354 33 314 38 m 347 856 l 150 733 l 72 733 l 263 951 q 301 983 283 975 q 335 990 318 990 q 378 979 361 990 q 403 929 403 963 q 390 888 403 903 q 347 856 376 874 z "},"î":{"ha":386,"x_min":-50,"x_max":418,"o":"m 354 33 l 354 0 l 22 0 l 22 33 q 78 54 67 44 q 96 117 96 71 l 96 525 q 81 584 96 569 q 22 607 67 599 l 22 640 l 289 640 l 289 113 q 301 56 289 75 q 354 33 314 38 m 339 733 l 183 869 l 28 733 l -50 733 l 119 978 l 247 978 l 418 733 l 339 733 z "},"ï":{"ha":386,"x_min":-50,"x_max":418,"o":"m 354 33 l 354 0 l 22 0 l 22 33 q 78 54 67 44 q 96 117 96 71 l 96 525 q 81 584 96 569 q 22 607 67 599 l 22 640 l 289 640 l 289 113 q 301 56 289 75 q 354 33 314 38 m -50 836 q -27 897 -50 868 q 38 926 -4 926 q 101 899 75 926 q 126 835 126 872 q 101 772 126 799 q 38 746 76 746 q -26 776 -3 746 q -50 836 -50 806 m 242 836 q 265 897 242 868 q 328 926 288 926 q 392 900 365 926 q 418 835 418 874 q 392 772 418 797 q 328 746 367 746 q 265 775 288 746 q 242 836 242 804 z "},"ð":{"ha":694,"x_min":35,"x_max":661,"o":"m 457 318 q 434 548 457 482 q 349 614 411 614 q 256 526 279 614 q 239 318 239 464 q 253 115 239 171 q 350 24 276 24 q 439 104 415 24 q 457 318 457 167 m 356 797 l 203 719 l 136 763 l 299 844 q 114 925 214 907 l 178 960 q 285 943 226 960 q 400 896 344 926 l 525 960 l 593 918 l 465 853 q 604 685 554 786 q 661 408 661 567 q 578 90 661 200 q 349 -19 494 -19 q 121 78 207 -19 q 35 318 35 176 q 122 557 35 457 q 349 657 208 657 q 417 644 388 657 q 472 600 447 632 l 475 604 q 356 797 438 717 z "},"ñ":{"ha":772,"x_min":29,"x_max":749,"o":"m 749 33 l 749 0 l 422 0 l 422 33 q 488 113 488 39 l 488 449 q 478 521 488 497 q 411 564 460 564 q 335 531 375 564 q 296 483 296 497 l 296 113 q 306 64 296 81 q 364 33 321 38 l 364 0 l 29 0 l 29 33 q 85 53 72 42 q 103 117 103 69 l 103 525 q 88 585 103 571 q 29 607 74 600 l 29 640 l 294 640 l 294 540 q 358 611 324 585 q 494 657 418 657 q 615 617 565 657 q 681 461 681 564 l 681 113 q 689 61 681 76 q 749 33 704 33 m 192 763 l 133 763 q 192 894 151 853 q 297 936 232 936 q 369 921 328 936 q 396 910 392 911 l 451 885 q 485 871 475 874 q 507 868 496 868 q 560 893 540 868 q 581 936 569 907 l 640 936 q 599 831 622 867 q 472 760 551 760 q 430 765 453 760 q 389 779 407 771 l 349 797 q 287 824 299 819 q 260 828 275 828 q 210 806 229 828 q 192 763 192 785 z "},"ò":{"ha":694,"x_min":35,"x_max":661,"o":"m 239 318 q 253 115 239 171 q 350 24 276 24 q 439 104 415 24 q 457 318 457 167 q 434 548 457 482 q 349 614 411 614 q 256 526 279 614 q 239 318 239 464 m 35 318 q 122 557 35 457 q 349 657 208 657 q 573 560 485 657 q 661 318 661 464 q 574 78 661 176 q 349 -19 488 -19 q 121 78 207 -19 q 35 318 35 176 m 458 733 l 381 733 l 183 856 q 142 889 156 872 q 128 929 128 906 q 149 974 128 957 q 196 990 169 990 q 235 979 217 990 q 268 951 254 968 l 458 733 z "},"ó":{"ha":694,"x_min":35,"x_max":661,"o":"m 239 318 q 253 115 239 171 q 350 24 276 24 q 439 104 415 24 q 457 318 457 167 q 434 548 457 482 q 349 614 411 614 q 256 526 279 614 q 239 318 239 464 m 35 318 q 122 557 35 457 q 349 657 208 657 q 573 560 485 657 q 661 318 661 464 q 574 78 661 176 q 349 -19 488 -19 q 121 78 207 -19 q 35 318 35 176 m 511 856 l 314 733 l 236 733 l 426 951 q 465 983 447 975 q 499 990 482 990 q 542 979 525 990 q 567 929 567 963 q 553 888 567 903 q 511 856 540 874 z "},"ô":{"ha":694,"x_min":35,"x_max":661,"o":"m 239 318 q 253 115 239 171 q 350 24 276 24 q 439 104 415 24 q 457 318 457 167 q 434 548 457 482 q 349 614 411 614 q 256 526 279 614 q 239 318 239 464 m 35 318 q 122 557 35 457 q 349 657 208 657 q 573 560 485 657 q 661 318 661 464 q 574 78 661 176 q 349 -19 488 -19 q 121 78 207 -19 q 35 318 35 176 m 503 733 l 347 869 l 192 733 l 114 733 l 283 978 l 411 978 l 582 733 l 503 733 z "},"õ":{"ha":694,"x_min":35,"x_max":661,"o":"m 239 318 q 253 115 239 171 q 350 24 276 24 q 439 104 415 24 q 457 318 457 167 q 434 548 457 482 q 349 614 411 614 q 256 526 279 614 q 239 318 239 464 m 35 318 q 122 557 35 457 q 349 657 208 657 q 573 560 485 657 q 661 318 661 464 q 574 78 661 176 q 349 -19 488 -19 q 121 78 207 -19 q 35 318 35 176 m 153 763 l 94 763 q 153 894 113 853 q 258 936 193 936 q 331 921 289 936 q 357 910 353 911 l 413 885 q 447 871 436 874 q 468 868 457 868 q 521 893 501 868 q 542 936 531 907 l 601 936 q 560 831 583 867 q 433 760 513 760 q 391 765 414 760 q 350 779 368 771 l 310 797 q 248 824 260 819 q 221 828 236 828 q 172 806 190 828 q 153 763 153 785 z "},"ö":{"ha":694,"x_min":35,"x_max":661,"o":"m 239 318 q 253 115 239 171 q 350 24 276 24 q 439 104 415 24 q 457 318 457 167 q 434 548 457 482 q 349 614 411 614 q 256 526 279 614 q 239 318 239 464 m 35 318 q 122 557 35 457 q 349 657 208 657 q 573 560 485 657 q 661 318 661 464 q 574 78 661 176 q 349 -19 488 -19 q 121 78 207 -19 q 35 318 35 176 m 114 836 q 137 897 114 868 q 201 926 160 926 q 265 899 239 926 q 290 835 290 872 q 265 772 290 799 q 201 746 240 746 q 138 776 161 746 q 114 836 114 806 m 406 836 q 428 897 406 868 q 492 926 451 926 q 556 900 529 926 q 582 835 582 874 q 556 772 582 797 q 492 746 531 746 q 428 775 451 746 q 406 836 406 804 z "},"÷":{"ha":792,"x_min":46,"x_max":746,"o":"m 746 290 l 46 290 l 46 413 l 746 413 l 746 290 m 290 639 q 322 715 290 683 q 397 746 353 746 q 471 714 439 746 q 503 639 503 682 q 471 567 503 600 q 399 533 439 533 q 322 564 354 533 q 290 639 290 594 m 290 64 q 321 139 290 108 q 397 169 351 169 q 472 138 440 169 q 503 64 503 107 q 471 -10 503 24 q 399 -43 439 -43 q 322 -11 354 -43 q 290 64 290 21 z "},"ø":{"ha":694,"x_min":35,"x_max":661,"o":"m 439 531 q 349 614 417 614 q 256 526 279 614 q 239 318 239 464 l 240 199 l 439 531 m 640 763 l 539 592 q 628 475 596 546 q 661 318 661 404 q 574 78 661 176 q 349 -19 488 -19 q 200 18 267 -19 l 113 -128 l 47 -128 l 153 50 q 65 167 96 97 q 35 318 35 236 q 122 557 35 457 q 349 657 208 657 q 493 622 431 657 l 576 763 l 640 763 m 254 111 q 288 46 265 68 q 350 24 310 24 q 439 104 415 24 q 457 318 457 167 l 454 446 l 254 111 z "},"ù":{"ha":772,"x_min":22,"x_max":746,"o":"m 746 60 l 746 28 q 607 13 629 15 q 476 -18 542 4 l 476 72 q 399 14 428 31 q 279 -19 340 -19 q 132 40 181 -19 q 90 175 90 92 l 90 525 q 78 584 90 568 q 22 607 65 600 l 22 640 l 283 640 l 283 169 q 293 106 283 125 q 361 71 310 71 q 428 92 396 71 q 475 132 447 104 l 475 525 q 450 593 475 576 q 389 607 436 603 l 389 640 l 668 640 l 668 140 q 685 79 668 99 q 746 60 701 60 m 488 733 l 410 733 l 213 856 q 171 889 185 872 q 157 929 157 906 q 178 974 157 957 q 225 990 199 990 q 265 979 246 990 q 297 951 283 968 l 488 733 z "},"ú":{"ha":772,"x_min":22,"x_max":746,"o":"m 746 60 l 746 28 q 607 13 629 15 q 476 -18 542 4 l 476 72 q 399 14 428 31 q 279 -19 340 -19 q 132 40 181 -19 q 90 175 90 92 l 90 525 q 78 584 90 568 q 22 607 65 600 l 22 640 l 283 640 l 283 169 q 293 106 283 125 q 361 71 310 71 q 428 92 396 71 q 475 132 447 104 l 475 525 q 450 593 475 576 q 389 607 436 603 l 389 640 l 668 640 l 668 140 q 685 79 668 99 q 746 60 701 60 m 540 856 l 343 733 l 265 733 l 456 951 q 494 983 476 975 q 528 990 511 990 q 571 979 554 990 q 596 929 596 963 q 583 888 596 903 q 540 856 569 874 z "},"û":{"ha":772,"x_min":22,"x_max":746,"o":"m 746 60 l 746 28 q 607 13 629 15 q 476 -18 542 4 l 476 72 q 399 14 428 31 q 279 -19 340 -19 q 132 40 181 -19 q 90 175 90 92 l 90 525 q 78 584 90 568 q 22 607 65 600 l 22 640 l 283 640 l 283 169 q 293 106 283 125 q 361 71 310 71 q 428 92 396 71 q 475 132 447 104 l 475 525 q 450 593 475 576 q 389 607 436 603 l 389 640 l 668 640 l 668 140 q 685 79 668 99 q 746 60 701 60 m 532 733 l 376 869 l 221 733 l 143 733 l 313 978 l 440 978 l 611 733 l 532 733 z "},"ü":{"ha":772,"x_min":22,"x_max":746,"o":"m 746 60 l 746 28 q 607 13 629 15 q 476 -18 542 4 l 476 72 q 399 14 428 31 q 279 -19 340 -19 q 132 40 181 -19 q 90 175 90 92 l 90 525 q 78 584 90 568 q 22 607 65 600 l 22 640 l 283 640 l 283 169 q 293 106 283 125 q 361 71 310 71 q 428 92 396 71 q 475 132 447 104 l 475 525 q 450 593 475 576 q 389 607 436 603 l 389 640 l 668 640 l 668 140 q 685 79 668 99 q 746 60 701 60 m 143 836 q 166 897 143 868 q 231 926 189 926 q 294 899 268 926 q 319 835 319 872 q 294 772 319 799 q 231 746 269 746 q 167 776 190 746 q 143 836 143 806 m 435 836 q 458 897 435 868 q 521 926 481 926 q 585 900 558 926 q 611 835 611 874 q 585 772 611 797 q 521 746 560 746 q 458 775 481 746 q 435 836 435 804 z "},"ý":{"ha":694,"x_min":22,"x_max":667,"o":"m 667 640 l 667 607 q 625 594 636 603 q 586 531 604 579 l 379 -21 q 311 -185 332 -146 q 150 -285 257 -285 q 53 -247 89 -285 q 22 -176 22 -215 q 36 -125 22 -147 q 114 -86 60 -86 q 176 -111 157 -86 q 192 -157 192 -131 q 188 -182 188 -176 q 211 -206 188 -206 q 271 -161 242 -206 q 303 -92 290 -132 l 328 -18 l 161 392 q 113 503 142 442 q 83 565 96 539 q 59 597 69 590 q 22 607 49 603 l 22 640 l 369 640 l 369 607 q 310 598 325 607 q 296 569 296 589 q 308 528 296 557 q 324 489 319 500 l 424 232 l 518 499 q 531 538 529 529 q 533 561 533 546 q 513 599 533 590 q 457 607 492 607 l 457 640 l 667 640 m 511 856 l 314 733 l 236 733 l 426 951 q 465 983 447 975 q 499 990 482 990 q 542 979 525 990 q 567 929 567 963 q 553 888 567 903 q 511 856 540 874 z "},"þ":{"ha":772,"x_min":26,"x_max":728,"o":"m 297 481 l 297 143 q 343 81 313 104 q 404 58 374 58 q 506 154 478 58 q 522 310 522 213 q 507 488 522 432 q 414 578 482 578 q 332 538 372 578 q 297 481 297 503 m 406 -256 l 406 -285 l 26 -285 l 26 -251 q 89 -229 74 -244 q 104 -171 104 -214 l 104 825 q 93 878 104 861 q 28 906 82 894 l 28 939 l 297 939 l 297 549 q 351 619 321 596 q 474 657 399 657 q 644 582 574 657 q 728 336 728 493 q 651 76 728 171 q 461 -18 574 -18 q 387 -3 421 -18 q 297 65 353 11 l 297 -131 q 326 -233 297 -207 q 406 -256 350 -256 z "},"ÿ":{"ha":694,"x_min":22,"x_max":667,"o":"m 667 640 l 667 607 q 625 594 636 603 q 586 531 604 579 l 379 -21 q 311 -185 332 -146 q 150 -285 257 -285 q 53 -247 89 -285 q 22 -176 22 -215 q 36 -125 22 -147 q 114 -86 60 -86 q 176 -111 157 -86 q 192 -157 192 -131 q 188 -182 188 -176 q 211 -206 188 -206 q 271 -161 242 -206 q 303 -92 290 -132 l 328 -18 l 161 392 q 113 503 142 442 q 83 565 96 539 q 59 597 69 590 q 22 607 49 603 l 22 640 l 369 640 l 369 607 q 310 598 325 607 q 296 569 296 589 q 308 528 296 557 q 324 489 319 500 l 424 232 l 518 499 q 531 538 529 529 q 533 561 533 546 q 513 599 533 590 q 457 607 492 607 l 457 640 l 667 640 m 114 836 q 137 897 114 868 q 201 926 160 926 q 265 899 239 926 q 290 835 290 872 q 265 772 290 799 q 201 746 240 746 q 138 776 161 746 q 114 836 114 806 m 406 836 q 428 897 406 868 q 492 926 451 926 q 556 900 529 926 q 582 835 582 874 q 556 772 582 797 q 492 746 531 746 q 428 775 451 746 q 406 836 406 804 z "},"˘":{"ha":463,"x_min":21,"x_max":442,"o":"m 381 960 l 442 960 q 387 794 442 854 q 231 733 332 733 q 76 792 132 733 q 21 960 21 850 l 82 960 q 111 885 92 910 q 232 839 149 839 q 346 883 307 839 q 381 960 367 908 z "},"˙":{"ha":463,"x_min":143,"x_max":319,"o":"m 143 836 q 166 897 143 868 q 229 926 189 926 q 293 900 267 926 q 319 835 319 874 q 294 772 319 797 q 229 746 268 746 q 166 775 189 746 q 143 836 143 804 z "},"ı":{"ha":386,"x_min":22,"x_max":354,"o":"m 354 33 l 354 0 l 22 0 l 22 33 q 78 54 67 44 q 96 117 96 71 l 96 525 q 81 584 96 569 q 22 607 67 599 l 22 640 l 289 640 l 289 113 q 301 56 289 75 q 354 33 314 38 z "},"˚":{"ha":463,"x_min":83,"x_max":379,"o":"m 83 879 q 126 985 83 942 q 232 1028 169 1028 q 336 985 293 1028 q 379 879 379 942 q 336 775 379 818 q 232 732 293 732 q 127 774 171 732 q 83 879 83 817 m 313 879 q 288 937 313 913 q 229 961 264 961 q 172 934 193 961 q 150 879 150 907 q 168 828 150 850 q 229 799 192 799 q 288 822 264 799 q 313 879 313 844 z "},"˛":{"ha":463,"x_min":125,"x_max":443,"o":"m 219 44 l 265 61 q 251 7 256 28 q 242 -54 242 -33 q 265 -123 242 -101 q 332 -144 288 -144 q 372 -136 353 -144 q 413 -117 397 -124 l 443 -136 q 371 -211 422 -182 q 279 -240 319 -240 q 182 -219 221 -240 q 125 -125 125 -189 q 174 -12 125 -78 q 219 44 207 28 z "},"ˇ":{"ha":463,"x_min":-3,"x_max":465,"o":"m 465 978 l 294 733 l 167 733 l -3 978 l 75 978 l 231 840 l 386 978 l 465 978 z "},"Ł":{"ha":926,"x_min":26,"x_max":886,"o":"m 886 315 l 829 0 l 26 0 l 26 35 q 115 56 96 43 q 146 133 146 75 l 146 397 l 33 329 l 33 414 l 146 482 l 146 806 q 110 889 146 867 q 26 904 85 904 l 26 939 l 511 939 l 511 904 q 404 886 429 904 q 371 776 371 863 l 371 614 l 542 719 l 542 635 l 371 529 l 371 121 q 396 58 371 72 q 494 43 421 43 q 725 119 640 43 q 846 315 790 178 l 886 315 z "},"ł":{"ha":386,"x_min":-31,"x_max":421,"o":"m 286 556 l 286 117 q 301 56 286 79 q 354 33 315 33 l 354 0 l 22 0 l 22 33 q 78 63 58 33 q 93 117 93 86 l 93 432 l -31 332 l -31 401 l 93 501 l 93 825 q 74 884 93 863 q 22 906 56 906 l 22 939 l 286 939 l 286 625 l 421 736 l 421 667 l 286 556 z "},"∕":{"ha":232,"x_min":-233,"x_max":457,"o":"m 379 956 l 457 956 l -153 -17 l -233 -17 l 379 956 z "},"":{"ha":772,"x_min":19,"x_max":744,"o":"m 744 33 l 744 0 l 418 0 l 418 33 q 475 63 461 38 q 483 113 483 78 l 483 532 q 475 569 483 558 q 436 579 467 579 l 292 579 l 292 113 q 300 64 292 79 q 357 33 314 38 l 357 0 l 19 0 l 19 33 q 86 58 74 40 q 99 117 99 76 l 99 579 l 19 579 l 19 640 l 99 640 q 139 833 99 763 q 406 960 211 960 q 585 928 515 960 q 656 833 656 897 q 628 771 656 793 q 564 749 601 749 q 501 769 525 749 q 476 824 476 790 q 481 857 476 844 q 489 879 485 869 q 467 908 489 897 q 413 918 444 918 q 308 847 332 918 q 292 640 292 797 l 439 640 q 526 643 486 640 q 676 657 631 653 l 676 113 q 691 53 676 72 q 744 33 706 33 z "},"":{"ha":772,"x_min":19,"x_max":744,"o":"m 744 33 l 744 0 l 418 0 l 418 33 l 429 35 q 479 78 469 40 q 483 113 483 94 l 483 579 l 292 579 l 292 113 q 300 64 292 79 q 357 33 314 38 l 357 0 l 19 0 l 19 33 q 86 58 74 40 q 99 117 99 76 l 99 579 l 19 579 l 19 640 l 99 640 q 143 850 99 778 q 386 960 211 960 q 451 956 422 960 q 585 917 522 946 l 650 958 l 676 958 l 676 113 q 689 55 676 75 q 728 35 701 35 l 744 33 m 483 640 l 483 776 q 463 793 472 779 q 454 826 454 807 q 460 849 454 835 q 472 882 472 881 q 407 914 472 914 q 307 851 332 914 q 292 726 292 813 l 292 640 l 483 640 z "},"Ž":{"ha":926,"x_min":39,"x_max":881,"o":"m 881 335 l 844 0 l 39 0 l 39 22 l 569 890 q 369 887 400 890 q 289 869 338 883 q 175 776 221 849 q 121 653 151 739 l 82 653 l 111 939 l 839 939 l 839 917 l 313 49 q 572 57 513 49 q 743 129 683 72 q 844 335 810 192 l 881 335 m 697 1269 l 526 1025 l 399 1025 l 229 1269 l 307 1269 l 463 1132 l 618 1269 l 697 1269 z "},"ž":{"ha":617,"x_min":29,"x_max":583,"o":"m 583 222 l 561 0 l 29 0 l 29 35 l 354 596 q 174 576 215 596 q 89 443 114 549 l 53 443 l 63 640 l 578 640 l 578 604 l 257 44 l 300 44 q 366 47 336 44 q 419 58 396 50 q 507 135 471 78 q 544 222 535 176 l 583 222 m 543 978 l 372 733 l 244 733 l 75 978 l 153 978 l 308 840 l 464 978 l 543 978 z "}}}
